<svg width="748" height="76" viewBox="0 0 748 76" fill="none" xmlns="http://www.w3.org/2000/svg">
<path d="M716.07 47.1C716.41 47.43 716.77 47.68 717.16 47.86C718.09 47.03 719.67 46.92 720.66 47.66C721.23 48.09 721.67 48.68 722.14 49.21C722.6 49.72 723.21 50.07 723.63 50.62C724.48 51.71 724.67 53.43 724.5 54.76C724.41 55.45 724.23 56.14 723.99 56.79C723.82 57.23 723.64 57.7 723.32 58.06C723.56 58.22 723.78 58.4 723.97 58.58C724.24 58.83 724.52 59.13 724.69 59.47C725.15 58.79 725.66 58.09 725.92 57.31C726.27 56.25 726.56 55.18 726.62 54.05C726.71 52.38 726.42 50.41 725.13 49.2C725.12 49.19 725.11 49.18 725.1 49.17C724.74 48.85 724.33 48.58 723.87 48.44C723.58 48.35 723.53 47.99 723.37 47.75C722.85 46.97 722.12 46.34 721.26 45.95C719.39 45.1 717.34 45.58 715.67 46.67C715.79 46.8 715.92 46.95 716.07 47.1Z" fill="#EDEAE6"/>
<path d="M723.69 48.03C723.8 48.26 723.94 48.3 724.15 48.39C724.49 48.54 724.82 48.73 725.09 48.98C725.12 49 725.14 49.03 725.17 49.05C727.29 47.63 728.19 45.09 728.02 42.61C727.93 41.31 727.59 40.05 726.81 38.99C726.23 38.19 725.52 37.41 724.64 36.92C724.63 36.92 724.61 36.91 724.61 36.9C724.41 36.79 724.21 36.7 724 36.62C721.8 35.83 719.26 36.63 717.96 38.52C717.96 38.53 717.95 38.54 717.94 38.55C717.79 38.77 717.66 39 717.55 39.24C717.05 40.33 716.86 41.56 717.26 42.72C717.47 43.33 717.83 43.95 718.38 44.31C718.79 44.58 719.43 44.91 719.92 44.64C719.94 44.63 719.96 44.63 719.97 44.64C719.97 44.64 719.98 44.64 719.98 44.65C719.99 44.66 720 44.67 720 44.68C720.24 45.41 721.29 45.59 721.94 45.58C722.83 45.56 723.81 45.25 724.33 44.47C725.1 43.32 724.73 41.68 723.58 40.91C722.97 40.5 722.09 40.37 721.5 40.91C721.12 41.26 720.94 41.96 721.69 41.9C721.71 41.9 721.73 41.91 721.74 41.92C722.61 42.72 721.5 43.51 720.62 43.29C719.7 43.06 719.19 42.18 719.05 41.3C718.89 40.34 719.37 39.45 720.09 38.85C721.25 37.87 722.83 37.85 724.08 38.7C725.49 39.66 726.32 41.34 726.33 43.04C726.33 44.1 726.09 45.19 725.48 46.07C725 46.77 724.32 47.45 723.44 47.58C723.52 47.73 723.61 47.88 723.69 48.03Z" fill="#EDEAE6"/>
<path d="M716.66 38.61C716.53 38.47 716.45 38.3 716.39 38.11C716.36 38.01 716.34 37.91 716.31 37.8C716.29 37.7 715.77 37.95 715.74 37.97C715.04 38.45 714.79 39.43 715.28 40.15C715.71 40.79 716.16 41 716.94 41.02C717 40.18 717.29 39.36 717.75 38.65C717.4 38.79 716.94 38.91 716.66 38.61Z" fill="#EDEAE6"/>
<path d="M732.59 39.64C732.54 39.16 732.51 38.69 732.59 38.21C732.6 38.15 732.61 38.09 732.63 38.03C731.94 37.7 731.17 38.07 731.13 38.87C731.7 38.95 732.25 39.18 732.59 39.64Z" fill="#EDEAE6"/>
<path d="M725.3 37.23C725.73 37.55 726.11 37.91 726.44 38.3C726.56 37.94 726.87 37.68 727.25 37.63C727.28 37.63 727.83 37.6 727.82 37.68C727.84 37.43 727.86 37.18 727.83 36.93C727.76 36.26 727.43 35.62 726.71 35.49C725.73 35.3 725.07 36.01 724.73 36.86C724.92 36.97 725.11 37.09 725.3 37.23Z" fill="#EDEAE6"/>
<path d="M727.83 45.53C727.4 46.97 726.54 48.27 725.25 49.14C725.31 49.2 725.37 49.26 725.42 49.33C726.82 48.18 728.44 47.2 730.16 46.61C731.15 46.27 732.19 46.04 733.24 46.16C734.27 46.27 735.24 46.84 735.97 47.55C736.78 48.35 737.48 49.36 737.65 50.51C737.8 51.55 737.2 52.47 736.63 53.27C735.82 54.4 734.69 56.17 733.12 56.24C731.77 56.3 729.88 56 729.6 54.38C729.33 52.83 730.03 50.36 731.95 50.31C732.41 50.3 732.82 50.51 732.96 50.97C733.06 51.28 733.09 51.76 732.85 52.02C732.76 52.11 732.66 52.15 732.54 52.11C732.46 52.09 732.45 52.01 732.39 52.07C732.21 52.27 732.08 52.51 732.11 52.79C732.25 54.35 734.32 53.8 734.98 52.96C735.69 52.04 736.01 50.7 735.47 49.62C734.91 48.5 733.8 48.14 732.64 48.56C732.61 48.57 732.59 48.56 732.58 48.54C731.78 47.77 730.45 47.8 729.56 48.39C728.72 48.94 728.4 49.77 728.39 50.75C728.39 50.75 728.39 50.75 728.39 50.76C728.39 50.76 728.39 50.76 728.39 50.77V50.78C728.38 50.79 728.37 50.81 728.35 50.81C727.23 51.1 727.09 52.48 727.21 53.44C727.32 54.38 727.66 55.68 728.57 56.16C728.59 56.17 728.6 56.18 728.6 56.2C729.13 57.62 730.92 57.83 732.21 57.51C732.22 57.5 732.23 57.5 732.24 57.51C732.25 57.51 732.25 57.51 732.25 57.52L732.26 57.53L732.27 57.54C732.27 57.54 732.27 57.54 732.27 57.55V57.56V57.57C732.27 57.58 732.27 57.58 732.27 57.59C732.27 57.6 732.26 57.61 732.25 57.62C731.78 58.15 731.53 59.01 732.09 59.58C732.32 59.81 732.66 59.98 733 59.89C733.17 59.85 733.82 59.6 733.62 59.37C733.02 58.68 733.55 57.8 734.35 57.7C735.97 57.26 737.24 56.24 737.85 54.65C737.85 54.64 737.86 54.63 737.87 54.63C737.88 54.62 737.88 54.62 737.9 54.61C739.12 54.16 739.82 52.91 739.77 51.64C739.77 51.62 739.78 51.6 739.79 51.59C739.81 51.57 739.83 51.57 739.86 51.59C740.57 52.06 741.36 51.81 741.7 51.03C741.85 50.68 741.88 50.29 741.7 49.94C741.71 49.96 740.99 50.1 740.92 50.11C739.92 50.24 739.12 50.04 738.4 49.34C738.34 49.29 738.43 49.2 738.48 49.26C739.43 50.18 740.5 50.11 741.72 49.84H741.73C742.86 49.71 743.63 48.86 743.66 47.73C743.68 47.17 743.49 45.88 742.67 45.99H742.66C742.63 45.99 742.6 45.98 742.6 45.95C742.27 44.34 739.37 43.55 738.88 45.44C738.76 45.92 738.78 46.55 739.15 46.92C739.61 47.37 740.21 47.17 740.69 46.87C740.48 46.64 740.39 46.17 740.74 46.01C741 45.89 741.27 46.03 741.47 46.21C742.08 46.79 742.3 47.85 741.54 48.41C740.36 49.28 739.02 48.37 738.09 47.54C737.43 46.95 736.84 46.23 736.09 45.75C735.27 45.23 734.31 44.97 733.37 44.74C733.35 44.73 733.34 44.72 733.33 44.7C733.32 44.68 733.32 44.65 733.34 44.64C733.81 44.25 733.76 43.54 733.45 43.06C733.16 42.61 732.69 42.36 732.14 42.42C731.74 42.47 730.97 42.67 730.89 43.16C730.86 43.34 731.39 43.25 731.53 43.39C731.96 43.79 731.6 44.5 731.1 44.63C730.63 44.75 730.14 44.78 729.66 44.89C729.02 45.04 728.4 45.24 727.81 45.54C727.86 45.54 727.85 45.54 727.83 45.53Z" fill="#EDEAE6"/>
<path d="M729 39.39C728.4 39.83 728.05 40.71 728.29 41.44C728.48 42.01 728.99 42.58 729.64 42.59C729.95 42.6 730.25 42.49 730.46 42.26C730.5 42.22 730.81 41.86 730.67 41.82C730.56 41.78 730.47 41.75 730.37 41.69C730.04 41.48 730.1 41.06 730.3 40.79C730.6 40.36 731.17 40.37 731.62 40.48C732.09 40.6 732.47 40.84 732.75 41.21C732.74 40.78 732.68 40.35 732.63 39.92C732.01 38.73 729.98 38.68 729 39.39Z" fill="#EDEAE6"/>
<path d="M721.06 32.93C721.04 32.95 721.02 32.95 721 32.94C720.99 32.94 720.98 32.93 720.98 32.93C719.88 31.79 718.42 31.63 717.01 32.29C715.9 32.81 714.91 33.58 714.13 34.52C712.81 36.11 711.26 39.02 713.25 40.72C713.27 40.73 713.27 40.75 713.27 40.77C713.27 40.78 713.27 40.78 713.26 40.79C713.26 40.79 713.26 40.79 713.26 40.8C711.94 42.95 712.52 45.8 714.06 47.71C714.07 47.72 714.08 47.73 714.09 47.74C714.26 47.94 714.43 48.14 714.62 48.31C715.74 49.39 717.3 50.14 718.85 50.31C720.17 50.46 721.46 50.25 722.74 49.93C722.57 49.79 722.4 49.65 722.24 49.48C721.89 49.1 721.57 48.69 721.21 48.32C719.27 48.55 717.23 48.59 715.83 47C715.74 46.9 715.65 46.79 715.57 46.68C715.55 46.67 715.54 46.65 715.53 46.63C714.3 44.92 714.39 42.64 715.24 40.75C714.79 39.91 714.15 38.91 714.3 37.91C714.45 36.92 715.22 36.14 715.92 35.47C716.59 34.83 717.42 34.17 718.37 34.02C719.44 33.85 720.32 34.34 721.03 35.11C722.64 33.81 724.54 33.18 726.55 33.94C727.27 34.21 728 34.56 728.52 35.15C728.94 35.62 729.21 36.17 729.5 36.72C730.52 35.91 731.51 35.02 732.67 34.42C733.79 33.85 735 33.65 736.25 33.74C738.2 33.88 740.5 34.5 741.18 36.57C741.66 38.04 741.33 39.83 740.2 40.93C739.18 41.92 737.36 42.37 736 41.91C734.62 41.44 733.89 39.61 735.03 38.47C735.3 38.2 735.6 37.99 736 37.97C736.29 37.95 736.73 37.94 736.96 38.17C737.42 38.63 736.9 39.27 736.38 39.35C736.16 40.14 737.07 40.59 737.75 40.44C738.47 40.28 739.07 39.71 739.17 38.96C739.34 37.71 738.44 36.35 737.08 36.73C737.1 36.88 737.09 37.03 737.04 37.19C737.02 37.26 736.9 37.23 736.92 37.16C737.16 36.28 736.32 35.88 735.57 35.89C734.82 35.9 733.99 36.24 733.45 36.77C732.19 38.01 732.84 39.74 732.86 41.28C732.83 42.47 734.1 43.05 735.13 42.84C735.16 42.83 735.18 42.85 735.19 42.87C735.19 42.87 735.19 42.88 735.2 42.88C735.2 42.88 735.2 42.88 735.2 42.89V42.9C735.53 45.49 739.66 43.97 740.89 42.96C742.06 42 743 40.62 743.34 39.13C743.51 38.4 743.56 37.61 743.34 36.88C743.09 36.08 742.55 35.41 741.97 34.81C741.93 34.77 741.97 34.7 742.03 34.71C742.55 34.83 743.12 34.96 743.59 34.65C744.08 34.33 744.43 33.9 744.37 33.28C744.32 32.82 744.15 32.25 743.73 32C743.27 31.73 742.74 31.63 742.21 31.65C742.03 31.66 741.84 31.67 741.66 31.7C741.65 31.7 741.63 31.7 741.63 31.7C741.63 31.71 741.64 31.71 741.64 31.73C741.75 32 741.91 32.34 741.86 32.65C741.73 33.46 741.01 33.66 740.39 33.19C738.81 32.04 736.78 31.67 734.86 31.91C733.1 32.13 731.28 32.77 730.02 34.06C729.99 34.09 729.94 34.08 729.93 34.05C729.03 32.38 727.34 31.58 725.5 31.5C723.97 31.45 722.07 31.64 721.06 32.93Z" fill="#EDEAE6"/>
<path d="M723.1 60.81C723.42 61.52 723.17 62.12 722.42 62.34C721.67 63.8 724.25 64.02 724.96 63.12C725.56 62.36 725.64 61.13 724.59 60.74C724.58 60.74 724.58 60.73 724.58 60.73C724.56 60.71 724.55 60.69 724.57 60.66C725.09 59.86 724.34 59 723.73 58.51C723.14 58.04 722.32 57.5 721.53 57.52C721.5 57.52 721.48 57.5 721.47 57.47C721.46 57.45 721.47 57.42 721.5 57.4C722.83 56.66 723.32 53.16 721.35 52.94C721.35 52.94 721.35 52.94 721.34 52.94C721.32 52.94 721.29 52.93 721.29 52.9C721.03 51.19 718.29 50.26 717.02 51.48C716.35 52.13 715.94 53.39 716.67 54.14C717.07 54.56 718 54.91 718.29 54.19C717.94 53.7 718.13 53.24 718.74 53.13C719.42 53.01 720.05 53.47 720.3 54.07C720.85 55.36 719.93 56.7 718.56 56.81C716.57 56.97 714.97 55.23 714.66 53.34C714.55 52.64 714.7 51.85 714.87 51.17C715.02 50.57 715.19 49.74 715.68 49.3C715.19 48.99 714.73 48.63 714.35 48.21C714.24 48.09 714.13 47.97 714.03 47.84C712.98 49.14 712.38 50.75 712.34 52.42C712.32 53.52 712.45 54.72 712.77 55.78C712.93 56.32 713.2 56.89 713.72 57.16C714.12 57.37 714.69 57.52 715.13 57.39C715.16 57.38 715.18 57.39 715.19 57.41C715.77 58.26 717.09 58.36 718.02 58.47C718.94 58.58 719.88 58.64 720.76 58.94C721.03 59.03 721.31 59.15 721.59 59.3C721.61 59.3 721.63 59.31 721.64 59.33C722.26 59.69 722.82 60.17 723.1 60.81Z" fill="#EDEAE6"/>
<path d="M707.11 47.1C706.77 47.43 706.41 47.68 706.02 47.86C705.09 47.03 703.51 46.92 702.52 47.66C701.95 48.09 701.51 48.68 701.04 49.21C700.58 49.72 699.97 50.07 699.55 50.62C698.7 51.71 698.51 53.43 698.68 54.76C698.77 55.45 698.95 56.14 699.19 56.79C699.36 57.23 699.54 57.7 699.86 58.06C699.62 58.22 699.4 58.4 699.21 58.58C698.94 58.83 698.67 59.13 698.49 59.47C698.03 58.79 697.52 58.09 697.26 57.31C696.91 56.25 696.62 55.18 696.56 54.05C696.47 52.38 696.76 50.41 698.05 49.2C698.06 49.19 698.07 49.18 698.08 49.17C698.44 48.85 698.85 48.58 699.31 48.44C699.6 48.35 699.65 47.99 699.81 47.75C700.33 46.97 701.06 46.34 701.92 45.95C703.79 45.1 705.84 45.58 707.51 46.67C707.39 46.8 707.25 46.95 707.11 47.1Z" fill="#EDEAE6"/>
<path d="M699.49 48.03C699.38 48.26 699.24 48.3 699.03 48.39C698.69 48.54 698.36 48.73 698.09 48.98C698.06 49 698.04 49.03 698.01 49.05C695.89 47.63 694.99 45.09 695.16 42.61C695.25 41.31 695.59 40.05 696.37 38.99C696.95 38.19 697.66 37.41 698.54 36.92C698.55 36.92 698.57 36.91 698.57 36.9C698.77 36.79 698.97 36.7 699.18 36.62C701.38 35.83 703.92 36.63 705.22 38.52C705.22 38.53 705.23 38.54 705.24 38.55C705.39 38.77 705.52 39 705.63 39.24C706.13 40.33 706.32 41.56 705.92 42.72C705.71 43.33 705.35 43.95 704.8 44.31C704.39 44.58 703.75 44.91 703.26 44.64C703.24 44.63 703.22 44.63 703.21 44.64C703.21 44.64 703.2 44.64 703.2 44.65C703.19 44.66 703.18 44.67 703.18 44.68C702.94 45.41 701.89 45.59 701.24 45.58C700.35 45.56 699.37 45.25 698.85 44.47C698.09 43.32 698.45 41.68 699.6 40.91C700.21 40.5 701.09 40.37 701.68 40.91C702.06 41.26 702.24 41.96 701.49 41.9C701.47 41.9 701.45 41.91 701.44 41.92C700.57 42.72 701.68 43.51 702.56 43.29C703.48 43.06 703.99 42.18 704.13 41.3C704.29 40.34 703.81 39.45 703.09 38.85C701.93 37.87 700.35 37.85 699.1 38.7C697.69 39.66 696.86 41.34 696.85 43.04C696.85 44.1 697.09 45.19 697.7 46.07C698.18 46.77 698.86 47.45 699.74 47.58C699.66 47.73 699.57 47.88 699.49 48.03Z" fill="#EDEAE6"/>
<path d="M706.52 38.61C706.65 38.47 706.73 38.3 706.79 38.11C706.82 38.01 706.84 37.91 706.87 37.8C706.89 37.7 707.41 37.95 707.44 37.97C708.14 38.45 708.39 39.43 707.9 40.15C707.47 40.79 707.02 41 706.24 41.02C706.18 40.18 705.89 39.36 705.43 38.65C705.78 38.79 706.24 38.91 706.52 38.61Z" fill="#EDEAE6"/>
<path d="M690.59 39.64C690.64 39.16 690.67 38.69 690.59 38.21C690.58 38.15 690.57 38.09 690.56 38.03C691.25 37.7 692.02 38.07 692.06 38.87C691.48 38.95 690.93 39.18 690.59 39.64Z" fill="#EDEAE6"/>
<path d="M697.88 37.23C697.45 37.55 697.07 37.91 696.74 38.3C696.62 37.94 696.31 37.68 695.93 37.63C695.9 37.63 695.36 37.6 695.36 37.68C695.34 37.43 695.32 37.18 695.35 36.93C695.42 36.26 695.75 35.62 696.47 35.49C697.45 35.3 698.11 36.01 698.45 36.86C698.26 36.97 698.07 37.09 697.88 37.23Z" fill="#EDEAE6"/>
<path d="M695.35 45.53C695.78 46.97 696.64 48.27 697.93 49.14C697.87 49.2 697.81 49.26 697.76 49.33C696.36 48.18 694.74 47.2 693.02 46.61C692.03 46.27 690.99 46.04 689.94 46.16C688.91 46.27 687.94 46.84 687.21 47.55C686.4 48.35 685.7 49.36 685.53 50.51C685.38 51.55 685.98 52.47 686.55 53.27C687.36 54.4 688.49 56.17 690.06 56.24C691.41 56.3 693.3 56 693.58 54.38C693.85 52.83 693.15 50.36 691.23 50.31C690.77 50.3 690.36 50.51 690.22 50.97C690.12 51.28 690.09 51.76 690.33 52.02C690.42 52.11 690.52 52.15 690.64 52.11C690.72 52.09 690.73 52.01 690.79 52.07C690.97 52.27 691.1 52.51 691.07 52.79C690.93 54.35 688.85 53.8 688.2 52.96C687.49 52.04 687.17 50.7 687.71 49.62C688.27 48.5 689.38 48.14 690.54 48.56C690.57 48.57 690.59 48.56 690.6 48.54C691.4 47.77 692.73 47.8 693.62 48.39C694.46 48.94 694.78 49.77 694.79 50.75C694.79 50.75 694.79 50.75 694.79 50.76C694.79 50.76 694.79 50.76 694.79 50.77V50.78C694.8 50.79 694.81 50.81 694.83 50.81C695.95 51.1 696.09 52.48 695.97 53.44C695.86 54.38 695.52 55.68 694.61 56.16C694.59 56.17 694.58 56.18 694.58 56.2C694.05 57.62 692.26 57.83 690.97 57.51C690.96 57.5 690.95 57.5 690.94 57.51C690.93 57.51 690.93 57.51 690.93 57.52L690.92 57.53L690.91 57.54C690.91 57.54 690.91 57.54 690.91 57.55V57.56V57.57C690.91 57.58 690.91 57.58 690.91 57.59C690.91 57.6 690.92 57.61 690.93 57.62C691.4 58.15 691.65 59.01 691.09 59.58C690.86 59.81 690.52 59.98 690.18 59.89C690.01 59.85 689.36 59.6 689.56 59.37C690.16 58.68 689.63 57.8 688.83 57.7C687.21 57.26 685.94 56.24 685.33 54.65C685.33 54.64 685.32 54.63 685.31 54.63C685.3 54.62 685.3 54.62 685.28 54.61C684.06 54.16 683.36 52.91 683.41 51.64C683.41 51.62 683.4 51.6 683.39 51.59C683.37 51.57 683.35 51.57 683.32 51.59C682.61 52.06 681.82 51.81 681.48 51.03C681.33 50.68 681.3 50.29 681.48 49.94C681.47 49.96 682.19 50.1 682.26 50.11C683.26 50.24 684.06 50.04 684.78 49.34C684.84 49.29 684.75 49.2 684.7 49.26C683.75 50.18 682.68 50.11 681.46 49.84H681.45C680.32 49.71 679.55 48.86 679.52 47.73C679.5 47.17 679.69 45.88 680.51 45.99H680.52C680.55 45.99 680.58 45.98 680.58 45.95C680.91 44.34 683.81 43.55 684.3 45.44C684.42 45.92 684.4 46.55 684.03 46.92C683.57 47.37 682.97 47.17 682.49 46.87C682.7 46.64 682.79 46.17 682.44 46.01C682.18 45.89 681.91 46.03 681.71 46.21C681.1 46.79 680.88 47.85 681.64 48.41C682.82 49.28 684.16 48.37 685.09 47.54C685.75 46.95 686.34 46.23 687.09 45.75C687.91 45.23 688.87 44.97 689.81 44.74C689.83 44.73 689.84 44.72 689.85 44.7C689.86 44.68 689.86 44.65 689.84 44.64C689.37 44.25 689.41 43.54 689.73 43.06C690.02 42.61 690.49 42.36 691.04 42.42C691.44 42.47 692.21 42.67 692.29 43.16C692.32 43.34 691.79 43.25 691.65 43.39C691.22 43.79 691.58 44.5 692.08 44.63C692.55 44.75 693.04 44.78 693.52 44.89C694.16 45.04 694.78 45.24 695.37 45.54C695.32 45.54 695.33 45.54 695.35 45.53Z" fill="#EDEAE6"/>
<path d="M694.18 39.39C694.78 39.83 695.13 40.71 694.89 41.44C694.7 42.01 694.18 42.58 693.54 42.59C693.23 42.6 692.93 42.49 692.72 42.26C692.68 42.22 692.37 41.86 692.51 41.82C692.62 41.78 692.71 41.75 692.81 41.69C693.14 41.48 693.08 41.06 692.88 40.79C692.58 40.36 692.01 40.37 691.56 40.48C691.09 40.6 690.71 40.84 690.43 41.21C690.44 40.78 690.5 40.35 690.55 39.92C691.17 38.73 693.2 38.68 694.18 39.39Z" fill="#EDEAE6"/>
<path d="M702.12 32.93C702.14 32.95 702.16 32.95 702.18 32.94C702.19 32.94 702.2 32.93 702.2 32.93C703.3 31.79 704.76 31.63 706.17 32.29C707.28 32.81 708.27 33.58 709.05 34.52C710.37 36.11 711.92 39.02 709.93 40.72C709.91 40.73 709.91 40.75 709.91 40.77C709.91 40.78 709.91 40.78 709.92 40.79C709.92 40.79 709.92 40.79 709.92 40.8C711.24 42.95 710.66 45.8 709.12 47.71C709.11 47.72 709.1 47.73 709.09 47.74C708.92 47.94 708.75 48.14 708.56 48.31C707.44 49.39 705.88 50.14 704.33 50.31C703.01 50.46 701.72 50.25 700.44 49.93C700.61 49.79 700.78 49.65 700.94 49.48C701.29 49.1 701.61 48.69 701.97 48.32C703.91 48.55 705.95 48.59 707.35 47C707.44 46.9 707.53 46.79 707.61 46.68C707.63 46.67 707.64 46.65 707.65 46.63C708.88 44.92 708.79 42.64 707.94 40.75C708.39 39.91 709.03 38.91 708.88 37.91C708.73 36.92 707.96 36.14 707.26 35.47C706.58 34.83 705.76 34.17 704.81 34.02C703.74 33.85 702.86 34.34 702.15 35.11C700.54 33.81 698.64 33.18 696.63 33.94C695.91 34.21 695.18 34.56 694.66 35.15C694.24 35.62 693.97 36.17 693.68 36.72C692.66 35.91 691.67 35.02 690.51 34.42C689.39 33.85 688.18 33.65 686.93 33.74C684.98 33.88 682.68 34.5 682 36.57C681.52 38.04 681.85 39.83 682.98 40.93C684 41.92 685.82 42.37 687.18 41.91C688.56 41.44 689.3 39.61 688.15 38.47C687.88 38.2 687.58 37.99 687.18 37.97C686.89 37.95 686.45 37.94 686.22 38.17C685.76 38.63 686.28 39.27 686.8 39.35C687.02 40.14 686.11 40.59 685.43 40.44C684.71 40.28 684.11 39.71 684.01 38.96C683.84 37.71 684.74 36.35 686.1 36.73C686.08 36.88 686.09 37.03 686.14 37.19C686.16 37.26 686.28 37.23 686.26 37.16C686.02 36.28 686.86 35.88 687.61 35.89C688.36 35.9 689.19 36.24 689.73 36.77C690.99 38.01 690.34 39.74 690.32 41.28C690.35 42.47 689.08 43.05 688.05 42.84C688.02 42.83 688 42.85 687.99 42.87C687.99 42.87 687.99 42.88 687.98 42.88C687.98 42.88 687.98 42.88 687.98 42.89V42.9C687.65 45.49 683.52 43.97 682.29 42.96C681.12 42 680.18 40.62 679.84 39.13C679.67 38.4 679.62 37.61 679.84 36.88C680.09 36.08 680.63 35.41 681.21 34.81C681.25 34.77 681.21 34.7 681.15 34.71C680.63 34.83 680.06 34.96 679.59 34.65C679.1 34.33 678.75 33.9 678.81 33.28C678.86 32.82 679.03 32.25 679.45 32C679.91 31.73 680.44 31.63 680.97 31.65C681.15 31.66 681.34 31.67 681.52 31.7C681.53 31.7 681.54 31.7 681.55 31.7C681.55 31.71 681.54 31.71 681.54 31.73C681.43 32 681.27 32.34 681.32 32.65C681.45 33.46 682.17 33.66 682.79 33.19C684.37 32.04 686.4 31.67 688.32 31.91C690.08 32.13 691.9 32.77 693.16 34.06C693.19 34.09 693.24 34.08 693.25 34.05C694.15 32.38 695.84 31.58 697.68 31.5C699.21 31.45 701.11 31.64 702.12 32.93Z" fill="#EDEAE6"/>
<path d="M700.08 60.81C699.76 61.52 700.01 62.12 700.76 62.34C701.51 63.8 698.93 64.02 698.22 63.12C697.62 62.36 697.54 61.13 698.59 60.74C698.6 60.74 698.6 60.73 698.6 60.73C698.62 60.71 698.63 60.69 698.61 60.66C698.08 59.86 698.84 59 699.45 58.51C700.04 58.04 700.86 57.5 701.65 57.52C701.68 57.52 701.7 57.5 701.71 57.47C701.72 57.45 701.71 57.42 701.68 57.4C700.35 56.66 699.86 53.16 701.83 52.94C701.83 52.94 701.83 52.94 701.84 52.94C701.86 52.94 701.89 52.93 701.89 52.9C702.15 51.19 704.89 50.26 706.16 51.48C706.83 52.13 707.24 53.39 706.51 54.14C706.11 54.56 705.18 54.91 704.89 54.19C705.24 53.7 705.05 53.24 704.44 53.13C703.76 53.01 703.14 53.47 702.88 54.07C702.33 55.36 703.25 56.7 704.62 56.81C706.61 56.97 708.21 55.23 708.52 53.34C708.63 52.64 708.48 51.85 708.31 51.17C708.16 50.57 707.99 49.74 707.5 49.3C707.99 48.99 708.45 48.63 708.83 48.21C708.94 48.09 709.05 47.97 709.15 47.84C710.2 49.14 710.8 50.75 710.84 52.42C710.86 53.52 710.73 54.72 710.41 55.78C710.25 56.32 709.98 56.89 709.46 57.16C709.06 57.37 708.49 57.52 708.05 57.39C708.02 57.38 708 57.39 707.99 57.41C707.99 57.41 707.99 57.41 707.98 57.41C707.4 58.26 706.08 58.36 705.15 58.47C704.23 58.58 703.29 58.64 702.41 58.94C702.14 59.03 701.86 59.15 701.58 59.3C701.56 59.3 701.54 59.31 701.53 59.33C700.92 59.69 700.36 60.17 700.08 60.81Z" fill="#EDEAE6"/>
<path d="M650.16 47.1C650.5 47.43 650.86 47.68 651.25 47.86C652.18 47.03 653.76 46.92 654.75 47.66C655.32 48.09 655.76 48.68 656.23 49.21C656.69 49.72 657.3 50.07 657.72 50.62C658.57 51.71 658.76 53.43 658.59 54.76C658.5 55.45 658.32 56.14 658.08 56.79C657.91 57.23 657.73 57.7 657.41 58.06C657.65 58.22 657.87 58.4 658.06 58.58C658.33 58.83 658.6 59.13 658.78 59.47C659.24 58.79 659.75 58.09 660.01 57.31C660.36 56.25 660.65 55.18 660.71 54.05C660.8 52.38 660.51 50.41 659.22 49.2C659.21 49.19 659.2 49.18 659.19 49.17C658.83 48.85 658.42 48.58 657.96 48.44C657.67 48.35 657.62 47.99 657.46 47.75C656.94 46.97 656.21 46.34 655.35 45.95C653.48 45.1 651.43 45.58 649.76 46.67C649.89 46.8 650.02 46.95 650.16 47.1Z" fill="#EDEAE6"/>
<path d="M657.78 48.03C657.89 48.26 658.03 48.3 658.24 48.39C658.58 48.54 658.91 48.73 659.18 48.98C659.21 49 659.23 49.03 659.26 49.05C661.38 47.63 662.28 45.09 662.11 42.61C662.02 41.31 661.68 40.05 660.9 38.99C660.32 38.19 659.61 37.41 658.73 36.92C658.72 36.92 658.7 36.91 658.7 36.9C658.5 36.79 658.3 36.7 658.09 36.62C655.89 35.83 653.35 36.63 652.05 38.52C652.05 38.53 652.04 38.54 652.03 38.55C651.88 38.77 651.75 39 651.64 39.24C651.14 40.33 650.95 41.56 651.35 42.72C651.56 43.33 651.92 43.95 652.47 44.31C652.88 44.58 653.52 44.91 654.01 44.64C654.03 44.63 654.05 44.63 654.06 44.64C654.06 44.64 654.07 44.64 654.07 44.65C654.08 44.66 654.09 44.67 654.09 44.68C654.33 45.41 655.38 45.59 656.03 45.58C656.92 45.56 657.9 45.25 658.42 44.47C659.18 43.32 658.82 41.68 657.67 40.91C657.06 40.5 656.18 40.37 655.59 40.91C655.21 41.26 655.03 41.96 655.78 41.9C655.8 41.9 655.82 41.91 655.83 41.92C656.7 42.72 655.59 43.51 654.71 43.29C653.79 43.06 653.28 42.18 653.14 41.3C652.98 40.34 653.46 39.45 654.18 38.85C655.34 37.87 656.92 37.85 658.17 38.7C659.58 39.66 660.41 41.34 660.42 43.04C660.42 44.1 660.18 45.19 659.57 46.07C659.09 46.77 658.41 47.45 657.53 47.58C657.61 47.73 657.7 47.88 657.78 48.03Z" fill="#EDEAE6"/>
<path d="M650.75 38.61C650.62 38.47 650.54 38.3 650.48 38.11C650.45 38.01 650.43 37.91 650.4 37.8C650.38 37.7 649.86 37.95 649.83 37.97C649.13 38.45 648.88 39.43 649.37 40.15C649.8 40.79 650.25 41 651.03 41.02C651.09 40.18 651.38 39.36 651.84 38.65C651.49 38.79 651.03 38.91 650.75 38.61Z" fill="#EDEAE6"/>
<path d="M666.69 39.64C666.64 39.16 666.61 38.69 666.69 38.21C666.7 38.15 666.71 38.09 666.72 38.03C666.03 37.7 665.26 38.07 665.22 38.87C665.79 38.95 666.35 39.18 666.69 39.64Z" fill="#EDEAE6"/>
<path d="M659.39 37.23C659.82 37.55 660.2 37.91 660.53 38.3C660.65 37.94 660.96 37.68 661.34 37.63C661.37 37.63 661.91 37.6 661.91 37.68C661.93 37.43 661.95 37.18 661.92 36.93C661.85 36.26 661.52 35.62 660.8 35.49C659.82 35.3 659.16 36.01 658.82 36.86C659.01 36.97 659.21 37.09 659.39 37.23Z" fill="#EDEAE6"/>
<path d="M661.93 45.53C661.5 46.97 660.64 48.27 659.35 49.14C659.41 49.2 659.47 49.26 659.52 49.33C660.92 48.18 662.54 47.2 664.26 46.61C665.25 46.27 666.29 46.04 667.34 46.16C668.37 46.27 669.34 46.84 670.07 47.55C670.88 48.35 671.58 49.36 671.75 50.51C671.9 51.55 671.3 52.47 670.73 53.27C669.92 54.4 668.79 56.17 667.22 56.24C665.87 56.3 663.98 56 663.7 54.38C663.43 52.83 664.13 50.36 666.05 50.31C666.51 50.3 666.92 50.51 667.06 50.97C667.16 51.28 667.19 51.76 666.95 52.02C666.86 52.11 666.76 52.15 666.64 52.11C666.56 52.09 666.55 52.01 666.49 52.07C666.31 52.27 666.18 52.51 666.21 52.79C666.35 54.35 668.43 53.8 669.08 52.96C669.79 52.04 670.11 50.7 669.57 49.62C669.01 48.5 667.9 48.14 666.74 48.56C666.71 48.57 666.69 48.56 666.68 48.54C665.88 47.77 664.55 47.8 663.66 48.39C662.82 48.94 662.5 49.77 662.49 50.75C662.49 50.75 662.49 50.75 662.49 50.76C662.49 50.76 662.49 50.76 662.49 50.77V50.78C662.48 50.79 662.47 50.81 662.45 50.81C661.33 51.1 661.19 52.48 661.31 53.44C661.42 54.38 661.76 55.68 662.67 56.16C662.69 56.17 662.7 56.18 662.7 56.2C663.23 57.62 665.02 57.83 666.31 57.51C666.32 57.5 666.33 57.5 666.34 57.51C666.35 57.51 666.35 57.51 666.35 57.52L666.36 57.53L666.37 57.54C666.37 57.54 666.37 57.54 666.37 57.55V57.56V57.57C666.37 57.58 666.37 57.58 666.37 57.59C666.37 57.6 666.36 57.61 666.35 57.62C665.88 58.15 665.63 59.01 666.19 59.58C666.42 59.81 666.76 59.98 667.1 59.89C667.27 59.85 667.92 59.6 667.72 59.37C667.12 58.68 667.65 57.8 668.45 57.7C670.07 57.26 671.34 56.24 671.95 54.65C671.95 54.64 671.96 54.63 671.97 54.63C671.98 54.62 671.98 54.62 672 54.61C673.22 54.16 673.92 52.91 673.87 51.64C673.87 51.62 673.88 51.6 673.89 51.59C673.91 51.57 673.93 51.57 673.96 51.59C674.67 52.06 675.46 51.81 675.8 51.03C675.95 50.68 675.98 50.29 675.8 49.94C675.81 49.96 675.09 50.1 675.02 50.11C674.02 50.24 673.22 50.04 672.5 49.34C672.44 49.29 672.53 49.2 672.58 49.26C673.53 50.18 674.6 50.11 675.82 49.84H675.83C676.96 49.71 677.73 48.86 677.76 47.73C677.78 47.17 677.59 45.88 676.77 45.99H676.76C676.73 45.99 676.7 45.98 676.7 45.95C676.37 44.34 673.47 43.55 672.98 45.44C672.86 45.92 672.88 46.55 673.25 46.92C673.71 47.37 674.31 47.17 674.79 46.87C674.58 46.64 674.49 46.17 674.84 46.01C675.1 45.89 675.37 46.03 675.57 46.21C676.18 46.79 676.4 47.85 675.64 48.41C674.46 49.28 673.12 48.37 672.19 47.54C671.53 46.95 670.94 46.23 670.19 45.75C669.37 45.23 668.41 44.97 667.47 44.74C667.45 44.73 667.44 44.72 667.43 44.7C667.42 44.68 667.42 44.65 667.44 44.64C667.91 44.25 667.87 43.54 667.55 43.06C667.26 42.61 666.79 42.36 666.24 42.42C665.84 42.47 665.07 42.67 664.99 43.16C664.96 43.34 665.49 43.25 665.63 43.39C666.06 43.79 665.7 44.5 665.2 44.63C664.73 44.75 664.24 44.78 663.76 44.89C663.12 45.04 662.5 45.24 661.91 45.54C661.95 45.54 661.94 45.54 661.93 45.53Z" fill="#EDEAE6"/>
<path d="M663.09 39.39C662.49 39.83 662.14 40.71 662.38 41.44C662.57 42.01 663.09 42.58 663.73 42.59C664.04 42.6 664.34 42.49 664.55 42.26C664.59 42.22 664.9 41.86 664.76 41.82C664.65 41.78 664.56 41.75 664.46 41.69C664.13 41.48 664.19 41.06 664.39 40.79C664.69 40.36 665.26 40.37 665.71 40.48C666.18 40.6 666.56 40.84 666.84 41.21C666.83 40.78 666.77 40.35 666.72 39.92C666.1 38.73 664.07 38.68 663.09 39.39Z" fill="#EDEAE6"/>
<path d="M655.15 32.93C655.13 32.95 655.11 32.95 655.09 32.94C655.08 32.94 655.07 32.93 655.07 32.93C653.97 31.79 652.51 31.63 651.1 32.29C649.99 32.81 649 33.58 648.22 34.52C646.9 36.11 645.35 39.02 647.34 40.72C647.36 40.73 647.36 40.75 647.36 40.77C647.36 40.78 647.36 40.78 647.35 40.79C647.35 40.79 647.35 40.79 647.35 40.8C646.03 42.95 646.61 45.8 648.15 47.71C648.16 47.72 648.17 47.73 648.18 47.74C648.35 47.94 648.52 48.14 648.71 48.31C649.83 49.39 651.39 50.14 652.94 50.31C654.26 50.46 655.55 50.25 656.83 49.93C656.66 49.79 656.49 49.65 656.33 49.48C655.98 49.1 655.66 48.69 655.3 48.32C653.36 48.55 651.32 48.59 649.92 47C649.83 46.9 649.74 46.79 649.66 46.68C649.64 46.67 649.63 46.65 649.62 46.63C648.39 44.92 648.48 42.64 649.33 40.75C648.88 39.91 648.24 38.91 648.39 37.91C648.54 36.92 649.31 36.14 650.01 35.47C650.69 34.83 651.51 34.17 652.46 34.02C653.53 33.85 654.41 34.34 655.12 35.11C656.73 33.81 658.63 33.18 660.64 33.94C661.36 34.21 662.09 34.56 662.61 35.15C663.03 35.62 663.3 36.17 663.59 36.72C664.61 35.91 665.6 35.02 666.76 34.42C667.88 33.85 669.09 33.65 670.34 33.74C672.29 33.88 674.59 34.5 675.27 36.57C675.75 38.04 675.42 39.83 674.29 40.93C673.27 41.92 671.45 42.37 670.09 41.91C668.71 41.44 667.97 39.61 669.12 38.47C669.39 38.2 669.69 37.99 670.09 37.97C670.38 37.95 670.82 37.94 671.05 38.17C671.51 38.63 670.99 39.27 670.47 39.35C670.25 40.14 671.16 40.59 671.84 40.44C672.56 40.28 673.16 39.71 673.26 38.96C673.43 37.71 672.53 36.35 671.17 36.73C671.19 36.88 671.18 37.03 671.13 37.19C671.11 37.26 670.99 37.23 671.01 37.16C671.25 36.28 670.41 35.88 669.66 35.89C668.91 35.9 668.08 36.24 667.54 36.77C666.28 38.01 666.93 39.74 666.95 41.28C666.92 42.47 668.19 43.05 669.22 42.84C669.25 42.83 669.27 42.85 669.28 42.87C669.28 42.87 669.28 42.88 669.29 42.88C669.29 42.88 669.29 42.88 669.29 42.89V42.9C669.62 45.49 673.75 43.97 674.98 42.96C676.15 42 677.09 40.62 677.43 39.13C677.6 38.4 677.65 37.61 677.43 36.88C677.18 36.08 676.64 35.41 676.06 34.81C676.02 34.77 676.06 34.7 676.12 34.71C676.64 34.83 677.21 34.96 677.68 34.65C678.17 34.33 678.52 33.9 678.46 33.28C678.41 32.82 678.24 32.25 677.82 32C677.36 31.73 676.83 31.63 676.3 31.65C676.12 31.66 675.93 31.67 675.75 31.7C675.74 31.7 675.73 31.7 675.72 31.7C675.72 31.71 675.73 31.71 675.73 31.73C675.84 32 676 32.34 675.95 32.65C675.82 33.46 675.1 33.66 674.48 33.19C672.9 32.04 670.87 31.67 668.95 31.91C667.19 32.13 665.37 32.77 664.11 34.06C664.08 34.09 664.03 34.08 664.02 34.05C663.12 32.38 661.43 31.58 659.59 31.5C658.06 31.45 656.16 31.64 655.15 32.93Z" fill="#EDEAE6"/>
<path d="M657.2 60.81C657.52 61.52 657.27 62.12 656.52 62.34C655.77 63.8 658.35 64.02 659.06 63.12C659.66 62.36 659.74 61.13 658.69 60.74C658.68 60.74 658.68 60.73 658.68 60.73C658.66 60.71 658.65 60.69 658.67 60.66C659.2 59.86 658.44 59 657.83 58.51C657.24 58.04 656.42 57.5 655.63 57.52C655.6 57.52 655.58 57.5 655.57 57.47C655.56 57.45 655.57 57.42 655.6 57.4C656.93 56.66 657.42 53.16 655.45 52.94C655.45 52.94 655.45 52.94 655.44 52.94C655.42 52.94 655.39 52.93 655.39 52.9C655.13 51.19 652.39 50.26 651.12 51.48C650.45 52.13 650.04 53.39 650.77 54.14C651.17 54.56 652.1 54.91 652.39 54.19C652.04 53.7 652.23 53.24 652.84 53.13C653.52 53.01 654.14 53.47 654.4 54.07C654.95 55.36 654.03 56.7 652.66 56.81C650.67 56.97 649.07 55.23 648.76 53.34C648.65 52.64 648.8 51.85 648.97 51.17C649.12 50.57 649.29 49.74 649.78 49.3C649.29 48.99 648.83 48.63 648.45 48.21C648.34 48.09 648.23 47.97 648.13 47.84C647.08 49.14 646.48 50.75 646.44 52.42C646.42 53.52 646.55 54.72 646.87 55.78C647.03 56.32 647.3 56.89 647.82 57.16C648.22 57.37 648.79 57.52 649.23 57.39C649.26 57.38 649.28 57.39 649.29 57.41C649.29 57.41 649.29 57.41 649.3 57.41C649.88 58.26 651.2 58.36 652.13 58.47C653.05 58.58 653.99 58.64 654.87 58.94C655.14 59.03 655.42 59.15 655.7 59.3C655.72 59.3 655.74 59.31 655.75 59.33C656.36 59.69 656.91 60.17 657.2 60.81Z" fill="#EDEAE6"/>
<path d="M714.38 58.77C712.71 59.24 711.71 60.43 711.63 62.66C711.63 62.79 711.63 62.92 711.63 63.05C711.64 63.33 711.68 63.62 711.75 63.92C712.1 65.44 713.35 66.65 714.82 66.17C715.34 66 715.91 65.56 716.07 64.93C716.28 64.06 715.88 63.3 715.06 63.37C714.91 64.01 714.18 64.19 713.7 63.86C713.18 63.5 713.26 62.53 713.45 61.99C713.96 60.53 715.88 60.18 717.09 60.62C719.13 61.36 719.47 62.99 719.28 64.64C719.09 66.32 717.71 67.59 716.27 67.7C716.38 70.49 713.65 71.09 711.59 71.12C709.51 71.1 706.63 70.55 706.74 67.7C705.29 67.58 703.79 66.36 703.61 64.69C703.43 63.02 704.16 61.4 706.05 60.67C707.34 60.17 709.2 60.51 709.61 62.2C709.76 62.83 709.75 63.59 709.2 63.94C708.74 64.24 708.08 63.91 707.95 63.36C707.07 63.29 706.57 64.3 707.04 65.17C707.31 65.67 707.77 66.1 708.3 66.18C709.73 66.4 710.95 65.52 711.26 63.9C711.5 62.64 711.47 61.06 710.65 60.1C710.07 59.42 709.28 58.95 708.46 58.74C706.45 58.22 703.1 59.17 702.24 61.44C701.64 63.04 701.45 65.05 702.2 66.64C702.67 67.64 704.31 68.9 705.27 69.3C705.32 69.3 705.26 69.22 705.27 69.3C705.64 72.14 709.32 73.18 711.48 73.23C713.66 73.18 717.38 72.36 717.75 69.46C717.76 69.38 717.76 69.38 717.76 69.38C718.75 68.97 720.22 68.01 720.84 66.34C721.44 64.75 721.54 63.03 720.89 61.47C719.79 58.86 716.41 58.19 714.38 58.77Z" fill="#EDEAE6"/>
<path d="M31.69 47.1C31.35 47.43 30.99 47.68 30.6 47.86C29.67 47.03 28.09 46.92 27.1 47.66C26.53 48.09 26.09 48.68 25.62 49.21C25.16 49.72 24.55 50.07 24.13 50.62C23.28 51.71 23.09 53.43 23.26 54.76C23.35 55.45 23.53 56.14 23.77 56.79C23.94 57.23 24.12 57.7 24.44 58.06C24.2 58.22 23.98 58.4 23.79 58.58C23.52 58.83 23.24 59.13 23.07 59.47C22.61 58.79 22.1 58.09 21.84 57.31C21.49 56.25 21.2 55.18 21.14 54.05C21.05 52.38 21.34 50.41 22.63 49.2C22.64 49.19 22.65 49.18 22.66 49.17C23.02 48.85 23.43 48.58 23.89 48.44C24.18 48.35 24.23 47.99 24.39 47.75C24.91 46.97 25.64 46.34 26.5 45.95C28.37 45.1 30.42 45.58 32.09 46.67C31.97 46.8 31.84 46.95 31.69 47.1Z" fill="#EDEAE6"/>
<path d="M24.08 48.03C23.97 48.26 23.83 48.3 23.62 48.39C23.28 48.54 22.95 48.73 22.68 48.98C22.65 49 22.63 49.03 22.6 49.05C20.48 47.63 19.58 45.09 19.75 42.61C19.84 41.31 20.18 40.05 20.96 38.99C21.54 38.19 22.25 37.41 23.13 36.92C23.14 36.92 23.16 36.91 23.16 36.9C23.36 36.79 23.56 36.7 23.77 36.62C25.97 35.83 28.51 36.63 29.81 38.52C29.81 38.53 29.82 38.54 29.83 38.55C29.98 38.77 30.11 39 30.22 39.24C30.72 40.33 30.91 41.56 30.51 42.72C30.3 43.33 29.94 43.95 29.39 44.31C28.98 44.58 28.34 44.91 27.85 44.64C27.83 44.63 27.81 44.63 27.8 44.64C27.8 44.64 27.79 44.64 27.79 44.65C27.78 44.66 27.77 44.67 27.77 44.68C27.53 45.41 26.48 45.59 25.83 45.58C24.94 45.56 23.96 45.25 23.44 44.47C22.67 43.32 23.04 41.68 24.19 40.91C24.8 40.5 25.68 40.37 26.27 40.91C26.65 41.26 26.83 41.96 26.08 41.9C26.06 41.9 26.04 41.91 26.03 41.92C25.16 42.72 26.27 43.51 27.15 43.29C28.07 43.06 28.58 42.18 28.72 41.3C28.88 40.34 28.4 39.45 27.68 38.85C26.52 37.87 24.94 37.85 23.69 38.7C22.28 39.66 21.45 41.34 21.44 43.04C21.44 44.1 21.68 45.19 22.29 46.07C22.77 46.77 23.45 47.45 24.33 47.58C24.24 47.73 24.15 47.88 24.08 48.03Z" fill="#EDEAE6"/>
<path d="M31.1 38.61C31.23 38.47 31.31 38.3 31.37 38.11C31.4 38.01 31.42 37.91 31.45 37.8C31.47 37.7 31.99 37.95 32.02 37.97C32.72 38.45 32.97 39.43 32.48 40.15C32.05 40.79 31.6 41 30.82 41.02C30.76 40.18 30.47 39.36 30.01 38.65C30.36 38.79 30.82 38.91 31.1 38.61Z" fill="#EDEAE6"/>
<path d="M15.17 39.64C15.22 39.16 15.25 38.69 15.17 38.21C15.16 38.15 15.15 38.09 15.13 38.03C15.82 37.7 16.59 38.07 16.63 38.87C16.06 38.95 15.51 39.18 15.17 39.64Z" fill="#EDEAE6"/>
<path d="M22.46 37.23C22.03 37.55 21.65 37.91 21.32 38.3C21.2 37.94 20.89 37.68 20.51 37.63C20.48 37.63 19.93 37.6 19.94 37.68C19.92 37.43 19.9 37.18 19.93 36.93C20 36.26 20.33 35.62 21.05 35.49C22.03 35.3 22.69 36.01 23.03 36.86C22.84 36.97 22.65 37.09 22.46 37.23Z" fill="#EDEAE6"/>
<path d="M19.93 45.53C20.36 46.97 21.22 48.27 22.51 49.14C22.45 49.2 22.39 49.26 22.34 49.33C20.94 48.18 19.32 47.2 17.6 46.61C16.61 46.27 15.57 46.04 14.52 46.16C13.49 46.27 12.52 46.84 11.79 47.55C10.98 48.35 10.28 49.36 10.11 50.51C9.95999 51.55 10.56 52.47 11.13 53.27C11.94 54.4 13.07 56.17 14.64 56.24C15.99 56.3 17.88 56 18.16 54.38C18.43 52.83 17.73 50.36 15.81 50.31C15.35 50.3 14.94 50.51 14.8 50.97C14.7 51.28 14.67 51.76 14.91 52.02C15 52.11 15.1 52.15 15.22 52.11C15.3 52.09 15.31 52.01 15.37 52.07C15.55 52.27 15.68 52.51 15.65 52.79C15.51 54.35 13.44 53.8 12.78 52.96C12.07 52.04 11.75 50.7 12.29 49.62C12.85 48.5 13.96 48.14 15.12 48.56C15.15 48.57 15.17 48.56 15.18 48.54C15.98 47.77 17.31 47.8 18.2 48.39C19.04 48.94 19.36 49.77 19.37 50.75C19.37 50.75 19.37 50.75 19.37 50.76C19.37 50.76 19.37 50.76 19.37 50.77V50.78C19.38 50.79 19.39 50.81 19.41 50.81C20.53 51.1 20.67 52.48 20.55 53.44C20.44 54.38 20.1 55.68 19.19 56.16C19.17 56.17 19.16 56.18 19.16 56.2C18.63 57.62 16.84 57.83 15.55 57.51C15.54 57.5 15.53 57.5 15.52 57.51C15.51 57.51 15.51 57.51 15.51 57.52L15.5 57.53L15.49 57.54C15.49 57.54 15.49 57.54 15.49 57.55V57.56V57.57C15.49 57.58 15.49 57.58 15.49 57.59C15.49 57.6 15.5 57.61 15.51 57.62C15.98 58.15 16.23 59.01 15.67 59.58C15.44 59.81 15.1 59.98 14.76 59.89C14.59 59.85 13.94 59.6 14.14 59.37C14.74 58.68 14.21 57.8 13.41 57.7C11.79 57.26 10.52 56.24 9.90999 54.65C9.90999 54.64 9.89999 54.63 9.88999 54.63C9.87999 54.62 9.87999 54.62 9.85999 54.61C8.63999 54.16 7.93999 52.91 7.98999 51.64C7.98999 51.62 7.97999 51.6 7.96999 51.59C7.94999 51.57 7.92999 51.57 7.89999 51.59C7.18999 52.06 6.39999 51.81 6.05999 51.03C5.90999 50.68 5.87999 50.29 6.05999 49.94C6.04999 49.96 6.76999 50.1 6.83999 50.11C7.83999 50.24 8.63999 50.04 9.35999 49.34C9.41999 49.29 9.32999 49.2 9.27999 49.26C8.32999 50.18 7.25999 50.11 6.03999 49.84H6.02999C4.89999 49.71 4.12999 48.86 4.09999 47.73C4.07999 47.17 4.26999 45.88 5.08999 45.99H5.09999C5.12999 45.99 5.15999 45.98 5.15999 45.95C5.48999 44.34 8.38999 43.55 8.87999 45.44C8.99999 45.92 8.97999 46.55 8.60999 46.92C8.14999 47.37 7.54999 47.17 7.06999 46.87C7.27999 46.64 7.36999 46.17 7.01999 46.01C6.75999 45.89 6.48999 46.03 6.28999 46.21C5.67999 46.79 5.45999 47.85 6.21999 48.41C7.39999 49.28 8.73999 48.37 9.66999 47.54C10.33 46.95 10.92 46.23 11.67 45.75C12.49 45.23 13.45 44.97 14.39 44.74C14.41 44.73 14.42 44.72 14.43 44.7C14.44 44.68 14.44 44.65 14.42 44.64C13.95 44.25 13.99 43.54 14.31 43.06C14.6 42.61 15.07 42.36 15.62 42.42C16.02 42.47 16.79 42.67 16.87 43.16C16.9 43.34 16.37 43.25 16.23 43.39C15.8 43.79 16.16 44.5 16.66 44.63C17.13 44.75 17.62 44.78 18.1 44.89C18.74 45.04 19.36 45.24 19.95 45.54C19.9 45.54 19.92 45.54 19.93 45.53Z" fill="#EDEAE6"/>
<path d="M18.77 39.39C19.37 39.83 19.72 40.71 19.48 41.44C19.29 42.01 18.78 42.58 18.13 42.59C17.82 42.6 17.52 42.49 17.31 42.26C17.27 42.22 16.96 41.86 17.1 41.82C17.21 41.78 17.3 41.75 17.4 41.69C17.73 41.48 17.67 41.06 17.47 40.79C17.17 40.36 16.6 40.37 16.15 40.48C15.68 40.6 15.3 40.84 15.02 41.21C15.03 40.78 15.09 40.35 15.14 39.92C15.75 38.73 17.79 38.68 18.77 39.39Z" fill="#EDEAE6"/>
<path d="M26.7 32.93C26.72 32.95 26.74 32.95 26.76 32.94C26.77 32.94 26.78 32.93 26.78 32.93C27.88 31.79 29.34 31.63 30.75 32.29C31.86 32.81 32.85 33.58 33.63 34.52C34.95 36.11 36.5 39.02 34.51 40.72C34.49 40.73 34.49 40.75 34.49 40.77C34.49 40.78 34.49 40.78 34.5 40.79C34.5 40.79 34.5 40.79 34.5 40.8C35.82 42.95 35.24 45.8 33.7 47.71C33.69 47.72 33.68 47.73 33.67 47.74C33.5 47.94 33.33 48.14 33.14 48.31C32.02 49.39 30.46 50.14 28.91 50.31C27.59 50.46 26.3 50.25 25.02 49.93C25.19 49.79 25.36 49.65 25.52 49.48C25.87 49.1 26.19 48.69 26.55 48.32C28.49 48.55 30.53 48.59 31.93 47C32.02 46.9 32.11 46.79 32.19 46.68C32.21 46.67 32.22 46.65 32.23 46.63C33.46 44.92 33.37 42.64 32.52 40.75C32.97 39.91 33.61 38.91 33.46 37.91C33.31 36.92 32.54 36.14 31.84 35.47C31.17 34.83 30.34 34.17 29.39 34.02C28.32 33.85 27.44 34.34 26.73 35.11C25.12 33.81 23.22 33.18 21.21 33.94C20.49 34.21 19.76 34.56 19.24 35.15C18.82 35.62 18.55 36.17 18.26 36.72C17.24 35.91 16.25 35.02 15.09 34.42C13.97 33.85 12.76 33.65 11.51 33.74C9.56 33.88 7.26 34.5 6.58 36.57C6.1 38.04 6.43 39.83 7.56 40.93C8.58 41.92 10.4 42.37 11.76 41.91C13.14 41.44 13.87 39.61 12.73 38.47C12.46 38.2 12.16 37.99 11.76 37.97C11.47 37.95 11.03 37.94 10.8 38.17C10.34 38.63 10.86 39.27 11.38 39.35C11.6 40.14 10.69 40.59 10.01 40.44C9.29 40.28 8.69 39.71 8.59 38.96C8.42 37.71 9.32 36.35 10.68 36.73C10.66 36.88 10.67 37.03 10.72 37.19C10.74 37.26 10.86 37.23 10.84 37.16C10.6 36.28 11.44 35.88 12.19 35.89C12.94 35.9 13.77 36.24 14.31 36.77C15.57 38.01 14.92 39.74 14.9 41.28C14.93 42.47 13.66 43.05 12.63 42.84C12.6 42.83 12.58 42.85 12.57 42.87C12.57 42.87 12.57 42.88 12.56 42.88C12.56 42.88 12.56 42.88 12.56 42.89V42.9C12.23 45.49 8.1 43.97 6.87 42.96C5.7 42 4.76 40.62 4.42 39.13C4.25 38.4 4.2 37.61 4.42 36.88C4.67 36.08 5.21 35.41 5.79 34.81C5.83 34.77 5.79 34.7 5.73 34.71C5.21 34.83 4.64 34.96 4.17 34.65C3.68 34.33 3.33 33.9 3.39 33.28C3.44 32.82 3.61 32.25 4.03 32C4.49 31.73 5.02 31.63 5.55 31.65C5.73 31.66 5.92 31.67 6.1 31.7C6.11 31.7 6.13 31.7 6.13 31.7C6.13 31.71 6.12 31.71 6.12 31.73C6 32.02 5.85 32.36 5.9 32.66C6.03 33.47 6.75 33.67 7.37 33.2C8.95 32.05 10.98 31.68 12.9 31.92C14.66 32.14 16.48 32.78 17.74 34.07C17.77 34.1 17.82 34.09 17.83 34.06C18.73 32.39 20.42 31.59 22.26 31.51C23.79 31.45 25.69 31.64 26.7 32.93Z" fill="#EDEAE6"/>
<path d="M24.66 60.81C24.34 61.52 24.59 62.12 25.34 62.34C26.09 63.8 23.51 64.02 22.8 63.12C22.2 62.36 22.12 61.13 23.17 60.74C23.18 60.74 23.18 60.73 23.18 60.73C23.2 60.71 23.21 60.69 23.19 60.66C22.67 59.86 23.42 59 24.03 58.51C24.62 58.04 25.44 57.5 26.23 57.52C26.26 57.52 26.28 57.5 26.29 57.47C26.3 57.45 26.29 57.42 26.26 57.4C24.93 56.66 24.44 53.16 26.41 52.94C26.41 52.94 26.41 52.94 26.42 52.94C26.44 52.94 26.47 52.93 26.47 52.9C26.73 51.19 29.47 50.26 30.74 51.48C31.41 52.13 31.82 53.39 31.09 54.14C30.69 54.56 29.76 54.91 29.47 54.19C29.82 53.7 29.63 53.24 29.02 53.13C28.34 53.01 27.71 53.47 27.46 54.07C26.91 55.36 27.83 56.7 29.2 56.81C31.19 56.97 32.79 55.23 33.1 53.34C33.21 52.64 33.06 51.85 32.89 51.17C32.74 50.57 32.57 49.74 32.08 49.3C32.57 48.99 33.03 48.63 33.41 48.21C33.52 48.09 33.63 47.97 33.73 47.84C34.78 49.14 35.38 50.75 35.42 52.42C35.44 53.52 35.31 54.72 34.99 55.78C34.83 56.32 34.56 56.89 34.04 57.16C33.64 57.37 33.07 57.52 32.63 57.39C32.6 57.38 32.58 57.39 32.57 57.41C31.99 58.26 30.67 58.36 29.74 58.47C28.82 58.58 27.88 58.64 27 58.94C26.73 59.03 26.44 59.15 26.17 59.3C26.15 59.3 26.13 59.31 26.12 59.33C25.5 59.69 24.94 60.17 24.66 60.81Z" fill="#EDEAE6"/>
<path d="M40.65 47.1C40.99 47.43 41.35 47.68 41.74 47.86C42.67 47.03 44.25 46.92 45.24 47.66C45.81 48.09 46.25 48.68 46.73 49.21C47.19 49.72 47.8 50.07 48.22 50.62C49.07 51.71 49.26 53.43 49.09 54.76C49 55.45 48.82 56.14 48.58 56.79C48.41 57.23 48.23 57.7 47.91 58.06C48.15 58.22 48.37 58.4 48.56 58.58C48.83 58.83 49.1 59.13 49.28 59.47C49.74 58.79 50.25 58.09 50.51 57.31C50.86 56.25 51.15 55.18 51.21 54.05C51.3 52.38 51.01 50.41 49.72 49.2C49.71 49.19 49.7 49.18 49.69 49.17C49.33 48.85 48.92 48.58 48.46 48.44C48.17 48.35 48.12 47.99 47.96 47.75C47.44 46.97 46.71 46.34 45.85 45.95C43.98 45.1 41.93 45.58 40.26 46.67C40.37 46.8 40.51 46.95 40.65 47.1Z" fill="#EDEAE6"/>
<path d="M48.27 48.03C48.38 48.26 48.52 48.3 48.73 48.39C49.07 48.54 49.4 48.73 49.67 48.98C49.7 49 49.72 49.03 49.75 49.05C51.87 47.63 52.77 45.09 52.6 42.61C52.51 41.31 52.17 40.05 51.39 38.99C50.81 38.19 50.1 37.41 49.22 36.92C49.21 36.92 49.19 36.91 49.19 36.9C48.99 36.79 48.79 36.7 48.58 36.62C46.38 35.83 43.84 36.63 42.54 38.52C42.54 38.53 42.53 38.54 42.52 38.55C42.37 38.77 42.24 39 42.13 39.24C41.63 40.33 41.44 41.56 41.84 42.72C42.05 43.33 42.41 43.95 42.96 44.31C43.37 44.58 44.01 44.91 44.5 44.64C44.52 44.63 44.54 44.63 44.55 44.64C44.55 44.64 44.56 44.64 44.56 44.65C44.57 44.66 44.58 44.67 44.58 44.68C44.82 45.41 45.87 45.59 46.52 45.58C47.41 45.56 48.39 45.25 48.91 44.47C49.67 43.32 49.31 41.68 48.16 40.91C47.55 40.5 46.67 40.37 46.08 40.91C45.7 41.26 45.52 41.96 46.27 41.9C46.29 41.9 46.31 41.91 46.32 41.92C47.19 42.72 46.08 43.51 45.2 43.29C44.28 43.06 43.77 42.18 43.63 41.3C43.47 40.34 43.95 39.45 44.67 38.85C45.83 37.87 47.41 37.85 48.66 38.7C50.07 39.66 50.9 41.34 50.91 43.04C50.91 44.1 50.67 45.19 50.06 46.07C49.58 46.77 48.9 47.45 48.02 47.58C48.1 47.73 48.19 47.88 48.27 48.03Z" fill="#EDEAE6"/>
<path d="M41.24 38.61C41.11 38.47 41.03 38.3 40.97 38.11C40.94 38.01 40.92 37.91 40.89 37.8C40.87 37.7 40.35 37.95 40.32 37.97C39.62 38.45 39.37 39.43 39.86 40.15C40.29 40.79 40.74 41 41.52 41.02C41.58 40.18 41.87 39.36 42.33 38.65C41.98 38.79 41.52 38.91 41.24 38.61Z" fill="#EDEAE6"/>
<path d="M57.18 39.64C57.13 39.16 57.1 38.69 57.18 38.21C57.19 38.15 57.2 38.09 57.21 38.03C56.52 37.7 55.75 38.07 55.71 38.87C56.28 38.95 56.84 39.18 57.18 39.64Z" fill="#EDEAE6"/>
<path d="M49.88 37.23C50.31 37.55 50.69 37.91 51.02 38.3C51.14 37.94 51.45 37.68 51.83 37.63C51.86 37.63 52.4 37.6 52.4 37.68C52.42 37.43 52.44 37.18 52.41 36.93C52.34 36.26 52.01 35.62 51.29 35.49C50.31 35.3 49.65 36.01 49.31 36.86C49.5 36.97 49.7 37.09 49.88 37.23Z" fill="#EDEAE6"/>
<path d="M52.42 45.53C51.99 46.97 51.13 48.27 49.84 49.14C49.9 49.2 49.96 49.26 50.01 49.33C51.41 48.18 53.03 47.2 54.75 46.61C55.74 46.27 56.78 46.04 57.83 46.16C58.86 46.27 59.83 46.84 60.56 47.55C61.37 48.35 62.07 49.36 62.24 50.51C62.39 51.55 61.79 52.47 61.22 53.27C60.41 54.4 59.28 56.17 57.71 56.24C56.36 56.3 54.47 56 54.19 54.38C53.92 52.83 54.62 50.36 56.54 50.31C57 50.3 57.41 50.51 57.55 50.97C57.65 51.28 57.68 51.76 57.44 52.02C57.35 52.11 57.25 52.15 57.13 52.11C57.05 52.09 57.04 52.01 56.98 52.07C56.8 52.27 56.67 52.51 56.7 52.79C56.84 54.35 58.92 53.8 59.57 52.96C60.28 52.04 60.6 50.7 60.06 49.62C59.5 48.5 58.39 48.14 57.23 48.56C57.2 48.57 57.18 48.56 57.17 48.54C56.37 47.77 55.04 47.8 54.15 48.39C53.31 48.94 52.99 49.77 52.98 50.75C52.98 50.75 52.98 50.75 52.98 50.76C52.98 50.76 52.98 50.76 52.98 50.77V50.78C52.97 50.79 52.96 50.81 52.94 50.81C51.82 51.1 51.68 52.48 51.8 53.44C51.91 54.38 52.25 55.68 53.16 56.16C53.18 56.17 53.19 56.18 53.19 56.2C53.72 57.62 55.51 57.83 56.8 57.51C56.81 57.5 56.82 57.5 56.83 57.51C56.84 57.51 56.84 57.51 56.84 57.52L56.85 57.53L56.86 57.54C56.86 57.54 56.86 57.54 56.86 57.55V57.56V57.57C56.86 57.58 56.86 57.58 56.86 57.59C56.86 57.6 56.85 57.61 56.84 57.62C56.37 58.15 56.12 59.01 56.68 59.58C56.91 59.81 57.25 59.98 57.59 59.89C57.76 59.85 58.41 59.6 58.21 59.37C57.61 58.68 58.14 57.8 58.94 57.7C60.56 57.26 61.83 56.24 62.44 54.65C62.44 54.64 62.45 54.63 62.46 54.63C62.47 54.62 62.47 54.62 62.49 54.61C63.71 54.16 64.41 52.91 64.36 51.64C64.36 51.62 64.37 51.6 64.38 51.59C64.4 51.57 64.42 51.57 64.45 51.59C65.16 52.06 65.95 51.81 66.29 51.03C66.44 50.68 66.47 50.29 66.29 49.94C66.3 49.96 65.58 50.1 65.51 50.11C64.51 50.24 63.71 50.04 62.99 49.34C62.93 49.29 63.02 49.2 63.07 49.26C64.02 50.18 65.09 50.11 66.31 49.84H66.32C67.45 49.71 68.22 48.86 68.25 47.73C68.27 47.17 68.08 45.88 67.26 45.99H67.25C67.22 45.99 67.19 45.98 67.19 45.95C66.86 44.34 63.96 43.55 63.47 45.44C63.35 45.92 63.37 46.55 63.74 46.92C64.2 47.37 64.8 47.17 65.28 46.87C65.07 46.64 64.98 46.17 65.33 46.01C65.59 45.89 65.86 46.03 66.06 46.21C66.67 46.79 66.89 47.85 66.13 48.41C64.95 49.28 63.61 48.37 62.68 47.54C62.02 46.95 61.43 46.23 60.68 45.75C59.86 45.23 58.9 44.97 57.96 44.74C57.94 44.73 57.93 44.72 57.92 44.7C57.91 44.68 57.91 44.65 57.93 44.64C58.4 44.25 58.36 43.54 58.04 43.06C57.75 42.61 57.28 42.36 56.73 42.42C56.33 42.47 55.56 42.67 55.48 43.16C55.45 43.34 55.98 43.25 56.12 43.39C56.55 43.79 56.19 44.5 55.69 44.63C55.22 44.75 54.73 44.78 54.25 44.89C53.61 45.04 52.99 45.24 52.4 45.54C52.44 45.54 52.43 45.54 52.42 45.53Z" fill="#EDEAE6"/>
<path d="M53.58 39.39C52.98 39.83 52.63 40.71 52.87 41.44C53.06 42.01 53.58 42.58 54.22 42.59C54.53 42.6 54.83 42.49 55.04 42.26C55.08 42.22 55.39 41.86 55.25 41.82C55.14 41.78 55.05 41.75 54.95 41.69C54.62 41.48 54.68 41.06 54.88 40.79C55.18 40.36 55.75 40.37 56.2 40.48C56.67 40.6 57.05 40.84 57.33 41.21C57.32 40.78 57.26 40.35 57.21 39.92C56.59 38.73 54.56 38.68 53.58 39.39Z" fill="#EDEAE6"/>
<path d="M45.64 32.93C45.62 32.95 45.6 32.95 45.58 32.94C45.57 32.94 45.56 32.93 45.56 32.93C44.46 31.79 43 31.63 41.59 32.29C40.48 32.81 39.49 33.58 38.71 34.52C37.39 36.11 35.84 39.02 37.83 40.72C37.85 40.73 37.85 40.75 37.85 40.77C37.85 40.78 37.85 40.78 37.84 40.79C37.84 40.79 37.84 40.79 37.84 40.8C36.52 42.95 37.1 45.8 38.64 47.71C38.65 47.72 38.66 47.73 38.67 47.74C38.84 47.94 39.01 48.14 39.2 48.31C40.32 49.39 41.88 50.14 43.43 50.31C44.75 50.46 46.04 50.25 47.32 49.93C47.15 49.79 46.98 49.65 46.82 49.48C46.47 49.1 46.15 48.69 45.79 48.32C43.85 48.55 41.81 48.59 40.41 47C40.32 46.9 40.23 46.79 40.15 46.68C40.13 46.67 40.12 46.65 40.11 46.63C38.88 44.92 38.97 42.64 39.82 40.75C39.37 39.91 38.73 38.91 38.88 37.91C39.03 36.92 39.8 36.14 40.5 35.47C41.18 34.83 42 34.17 42.95 34.02C44.02 33.85 44.9 34.34 45.61 35.11C47.22 33.81 49.12 33.18 51.13 33.94C51.85 34.21 52.58 34.56 53.1 35.15C53.52 35.62 53.79 36.17 54.08 36.72C55.1 35.91 56.09 35.02 57.25 34.42C58.37 33.85 59.58 33.65 60.83 33.74C62.78 33.88 65.08 34.5 65.76 36.57C66.24 38.04 65.91 39.83 64.78 40.93C63.76 41.92 61.94 42.37 60.58 41.91C59.2 41.44 58.46 39.61 59.61 38.47C59.88 38.2 60.18 37.99 60.58 37.97C60.87 37.95 61.31 37.94 61.54 38.17C62 38.63 61.48 39.27 60.96 39.35C60.74 40.14 61.65 40.59 62.33 40.44C63.05 40.28 63.65 39.71 63.75 38.96C63.92 37.71 63.02 36.35 61.66 36.73C61.68 36.88 61.67 37.03 61.62 37.19C61.6 37.26 61.48 37.23 61.5 37.16C61.74 36.28 60.9 35.88 60.15 35.89C59.4 35.9 58.57 36.24 58.03 36.77C56.77 38.01 57.42 39.74 57.44 41.28C57.41 42.47 58.68 43.05 59.71 42.84C59.74 42.83 59.76 42.85 59.77 42.87C59.77 42.87 59.77 42.88 59.78 42.88C59.78 42.88 59.78 42.88 59.78 42.89V42.9C60.11 45.49 64.24 43.97 65.47 42.96C66.64 42 67.58 40.62 67.92 39.13C68.09 38.4 68.14 37.61 67.92 36.88C67.67 36.08 67.13 35.41 66.55 34.81C66.51 34.77 66.55 34.7 66.61 34.71C67.13 34.83 67.7 34.96 68.17 34.65C68.66 34.33 69.01 33.9 68.95 33.28C68.9 32.82 68.73 32.25 68.31 32C67.85 31.73 67.32 31.63 66.79 31.65C66.61 31.66 66.42 31.67 66.24 31.7C66.23 31.7 66.22 31.7 66.21 31.7C66.21 31.71 66.22 31.71 66.22 31.73C66.33 32 66.49 32.34 66.44 32.65C66.31 33.46 65.59 33.66 64.97 33.19C63.39 32.04 61.36 31.67 59.44 31.91C57.68 32.13 55.86 32.77 54.6 34.06C54.57 34.09 54.52 34.08 54.51 34.05C53.61 32.38 51.92 31.58 50.08 31.5C48.55 31.45 46.65 31.64 45.64 32.93Z" fill="#EDEAE6"/>
<path d="M47.68 60.81C48 61.52 47.75 62.12 47 62.34C46.25 63.8 48.83 64.02 49.54 63.12C50.14 62.36 50.22 61.13 49.17 60.74C49.16 60.74 49.16 60.73 49.16 60.73C49.14 60.71 49.13 60.69 49.15 60.66C49.68 59.86 48.92 59 48.31 58.51C47.72 58.04 46.9 57.5 46.11 57.52C46.08 57.52 46.06 57.5 46.05 57.47C46.04 57.45 46.05 57.42 46.08 57.4C47.41 56.66 47.9 53.16 45.93 52.94C45.93 52.94 45.93 52.94 45.92 52.94C45.9 52.94 45.87 52.93 45.87 52.9C45.61 51.19 42.87 50.26 41.6 51.48C40.93 52.13 40.52 53.39 41.25 54.14C41.65 54.56 42.58 54.91 42.87 54.19C42.52 53.7 42.71 53.24 43.32 53.13C44 53.01 44.62 53.47 44.88 54.07C45.43 55.36 44.51 56.7 43.14 56.81C41.15 56.97 39.55 55.23 39.24 53.34C39.13 52.64 39.28 51.85 39.45 51.17C39.6 50.57 39.77 49.74 40.26 49.3C39.77 48.99 39.31 48.63 38.93 48.21C38.82 48.09 38.71 47.97 38.61 47.84C37.56 49.14 36.96 50.75 36.92 52.42C36.9 53.52 37.03 54.72 37.35 55.78C37.51 56.32 37.78 56.89 38.3 57.16C38.7 57.37 39.27 57.52 39.71 57.39C39.74 57.38 39.76 57.39 39.77 57.41C39.77 57.41 39.77 57.41 39.78 57.41C40.36 58.26 41.68 58.36 42.61 58.47C43.53 58.58 44.47 58.64 45.35 58.94C45.62 59.03 45.9 59.15 46.18 59.3C46.2 59.3 46.22 59.31 46.23 59.33C46.85 59.69 47.4 60.17 47.68 60.81Z" fill="#EDEAE6"/>
<path d="M97.6 47.1C97.26 47.43 96.9 47.68 96.51 47.86C95.58 47.03 94 46.92 93.01 47.66C92.44 48.09 92 48.68 91.52 49.21C91.06 49.72 90.45 50.07 90.03 50.62C89.18 51.71 88.99 53.43 89.16 54.76C89.25 55.45 89.43 56.14 89.67 56.79C89.84 57.23 90.02 57.7 90.34 58.06C90.1 58.22 89.88 58.4 89.69 58.58C89.42 58.83 89.15 59.13 88.97 59.47C88.51 58.79 88 58.09 87.74 57.31C87.39 56.25 87.1 55.18 87.04 54.05C86.95 52.38 87.24 50.41 88.53 49.2C88.54 49.19 88.55 49.18 88.56 49.17C88.92 48.85 89.33 48.58 89.79 48.44C90.08 48.35 90.13 47.99 90.29 47.75C90.81 46.97 91.54 46.34 92.4 45.95C94.27 45.1 96.32 45.58 97.99 46.67C97.88 46.8 97.74 46.95 97.6 47.1Z" fill="#EDEAE6"/>
<path d="M89.98 48.03C89.87 48.26 89.73 48.3 89.52 48.39C89.18 48.54 88.85 48.73 88.58 48.98C88.55 49 88.53 49.03 88.5 49.05C86.38 47.63 85.48 45.09 85.65 42.61C85.74 41.31 86.08 40.05 86.86 38.99C87.44 38.19 88.15 37.41 89.03 36.92C89.04 36.92 89.06 36.91 89.06 36.9C89.26 36.79 89.46 36.7 89.67 36.62C91.87 35.83 94.41 36.63 95.71 38.52C95.71 38.53 95.72 38.54 95.73 38.55C95.88 38.77 96.01 39 96.12 39.24C96.62 40.33 96.81 41.56 96.41 42.72C96.2 43.33 95.84 43.95 95.29 44.31C94.88 44.58 94.24 44.91 93.75 44.64C93.73 44.63 93.71 44.63 93.7 44.64C93.7 44.64 93.69 44.64 93.69 44.65C93.68 44.66 93.67 44.67 93.67 44.68C93.43 45.41 92.38 45.59 91.73 45.58C90.84 45.56 89.86 45.25 89.34 44.47C88.58 43.32 88.94 41.68 90.09 40.91C90.7 40.5 91.58 40.37 92.17 40.91C92.55 41.26 92.73 41.96 91.98 41.9C91.96 41.9 91.94 41.91 91.93 41.92C91.06 42.72 92.17 43.51 93.05 43.29C93.97 43.06 94.48 42.18 94.62 41.3C94.78 40.34 94.3 39.45 93.58 38.85C92.42 37.87 90.84 37.85 89.59 38.7C88.18 39.66 87.35 41.34 87.34 43.04C87.34 44.1 87.58 45.19 88.19 46.07C88.67 46.77 89.35 47.45 90.23 47.58C90.15 47.73 90.06 47.88 89.98 48.03Z" fill="#EDEAE6"/>
<path d="M97.01 38.61C97.14 38.47 97.22 38.3 97.28 38.11C97.31 38.01 97.33 37.91 97.36 37.8C97.38 37.7 97.9 37.95 97.93 37.97C98.63 38.45 98.88 39.43 98.39 40.15C97.96 40.79 97.51 41 96.73 41.02C96.67 40.18 96.38 39.36 95.92 38.65C96.27 38.79 96.73 38.91 97.01 38.61Z" fill="#EDEAE6"/>
<path d="M81.08 39.64C81.13 39.16 81.16 38.69 81.08 38.21C81.07 38.15 81.06 38.09 81.05 38.03C81.74 37.7 82.51 38.07 82.55 38.87C81.97 38.95 81.42 39.18 81.08 39.64Z" fill="#EDEAE6"/>
<path d="M88.37 37.23C87.94 37.55 87.56 37.91 87.23 38.3C87.11 37.94 86.8 37.68 86.42 37.63C86.39 37.63 85.85 37.6 85.85 37.68C85.83 37.43 85.81 37.18 85.84 36.93C85.91 36.26 86.24 35.62 86.96 35.49C87.94 35.3 88.6 36.01 88.94 36.86C88.75 36.97 88.55 37.09 88.37 37.23Z" fill="#EDEAE6"/>
<path d="M85.84 45.53C86.27 46.97 87.13 48.27 88.42 49.14C88.36 49.2 88.3 49.26 88.25 49.33C86.85 48.18 85.23 47.2 83.51 46.61C82.52 46.27 81.48 46.04 80.43 46.16C79.4 46.27 78.43 46.84 77.7 47.55C76.89 48.35 76.19 49.36 76.02 50.51C75.87 51.55 76.47 52.47 77.04 53.27C77.85 54.4 78.98 56.17 80.55 56.24C81.9 56.3 83.79 56 84.07 54.38C84.34 52.83 83.64 50.36 81.72 50.31C81.26 50.3 80.85 50.51 80.71 50.97C80.61 51.28 80.58 51.76 80.82 52.02C80.91 52.11 81.01 52.15 81.13 52.11C81.21 52.09 81.22 52.01 81.28 52.07C81.46 52.27 81.59 52.51 81.56 52.79C81.42 54.35 79.34 53.8 78.69 52.96C77.98 52.04 77.66 50.7 78.2 49.62C78.76 48.5 79.87 48.14 81.03 48.56C81.06 48.57 81.08 48.56 81.09 48.54C81.89 47.77 83.22 47.8 84.11 48.39C84.95 48.94 85.27 49.77 85.28 50.75C85.28 50.75 85.28 50.75 85.28 50.76C85.28 50.76 85.28 50.76 85.28 50.77V50.78C85.29 50.79 85.3 50.81 85.32 50.81C86.44 51.1 86.58 52.48 86.46 53.44C86.35 54.38 86.01 55.68 85.1 56.16C85.08 56.17 85.07 56.18 85.07 56.2C84.54 57.62 82.75 57.83 81.46 57.51C81.45 57.5 81.44 57.5 81.43 57.51C81.42 57.51 81.42 57.51 81.42 57.52L81.41 57.53L81.4 57.54C81.4 57.54 81.4 57.54 81.4 57.55V57.56V57.57C81.4 57.58 81.4 57.58 81.4 57.59C81.4 57.6 81.41 57.61 81.42 57.62C81.89 58.15 82.14 59.01 81.58 59.58C81.35 59.81 81.01 59.98 80.67 59.89C80.5 59.85 79.85 59.6 80.05 59.37C80.65 58.68 80.12 57.8 79.32 57.7C77.7 57.26 76.43 56.24 75.82 54.65C75.82 54.64 75.81 54.63 75.8 54.63C75.79 54.62 75.79 54.62 75.77 54.61C74.55 54.16 73.85 52.91 73.9 51.64C73.9 51.62 73.89 51.6 73.88 51.59C73.86 51.57 73.84 51.57 73.81 51.59C73.1 52.06 72.31 51.81 71.97 51.03C71.82 50.68 71.79 50.29 71.97 49.94C71.96 49.96 72.68 50.1 72.75 50.11C73.75 50.24 74.55 50.04 75.27 49.34C75.33 49.29 75.24 49.2 75.19 49.26C74.24 50.18 73.17 50.11 71.95 49.84H71.94C70.81 49.71 70.04 48.86 70.01 47.73C69.99 47.17 70.18 45.88 71 45.99H71.01C71.04 45.99 71.07 45.98 71.07 45.95C71.4 44.34 74.3 43.55 74.79 45.44C74.91 45.92 74.89 46.55 74.52 46.92C74.06 47.37 73.46 47.17 72.98 46.87C73.19 46.64 73.28 46.17 72.93 46.01C72.67 45.89 72.4 46.03 72.2 46.21C71.59 46.79 71.37 47.85 72.13 48.41C73.31 49.28 74.65 48.37 75.58 47.54C76.24 46.95 76.83 46.23 77.58 45.75C78.4 45.23 79.36 44.97 80.3 44.74C80.32 44.73 80.33 44.72 80.34 44.7C80.35 44.68 80.35 44.65 80.33 44.64C79.86 44.25 79.9 43.54 80.22 43.06C80.51 42.61 80.98 42.36 81.53 42.42C81.93 42.47 82.7 42.67 82.78 43.16C82.81 43.34 82.28 43.25 82.14 43.39C81.71 43.79 82.07 44.5 82.57 44.63C83.04 44.75 83.53 44.78 84.01 44.89C84.65 45.04 85.27 45.24 85.86 45.54C85.81 45.54 85.82 45.54 85.84 45.53Z" fill="#EDEAE6"/>
<path d="M84.67 39.39C85.27 39.83 85.62 40.71 85.38 41.44C85.19 42.01 84.67 42.58 84.03 42.59C83.72 42.6 83.42 42.49 83.21 42.26C83.17 42.22 82.86 41.86 83 41.82C83.11 41.78 83.2 41.75 83.3 41.69C83.63 41.48 83.57 41.06 83.37 40.79C83.07 40.36 82.5 40.37 82.05 40.48C81.58 40.6 81.2 40.84 80.92 41.21C80.93 40.78 80.99 40.35 81.04 39.92C81.66 38.73 83.69 38.68 84.67 39.39Z" fill="#EDEAE6"/>
<path d="M92.61 32.93C92.63 32.95 92.65 32.95 92.67 32.94C92.68 32.94 92.69 32.93 92.69 32.93C93.79 31.79 95.25 31.63 96.66 32.29C97.77 32.81 98.76 33.58 99.54 34.52C100.86 36.11 102.41 39.02 100.42 40.72C100.4 40.73 100.4 40.75 100.4 40.77C100.4 40.78 100.4 40.78 100.41 40.79C100.41 40.79 100.41 40.79 100.41 40.8C101.73 42.95 101.15 45.8 99.61 47.71C99.6 47.72 99.59 47.73 99.58 47.74C99.41 47.94 99.24 48.14 99.05 48.31C97.93 49.39 96.37 50.14 94.82 50.31C93.5 50.46 92.21 50.25 90.93 49.93C91.1 49.79 91.27 49.65 91.43 49.48C91.78 49.1 92.1 48.69 92.46 48.32C94.4 48.55 96.44 48.59 97.84 47C97.93 46.9 98.02 46.79 98.1 46.68C98.12 46.67 98.13 46.65 98.14 46.63C99.37 44.92 99.28 42.64 98.43 40.75C98.88 39.91 99.52 38.91 99.37 37.91C99.22 36.92 98.45 36.14 97.75 35.47C97.07 34.83 96.25 34.17 95.3 34.02C94.23 33.85 93.35 34.34 92.64 35.11C91.03 33.81 89.13 33.18 87.12 33.94C86.4 34.21 85.67 34.56 85.15 35.15C84.73 35.62 84.46 36.17 84.17 36.72C83.15 35.91 82.16 35.02 81 34.42C79.88 33.85 78.67 33.65 77.42 33.74C75.47 33.88 73.17 34.5 72.49 36.57C72.01 38.04 72.34 39.83 73.47 40.93C74.49 41.92 76.31 42.37 77.67 41.91C79.05 41.44 79.79 39.61 78.64 38.47C78.37 38.2 78.07 37.99 77.67 37.97C77.38 37.95 76.94 37.94 76.71 38.17C76.25 38.63 76.77 39.27 77.29 39.35C77.51 40.14 76.6 40.59 75.92 40.44C75.2 40.28 74.6 39.71 74.5 38.96C74.33 37.71 75.23 36.35 76.59 36.73C76.57 36.88 76.58 37.03 76.63 37.19C76.65 37.26 76.77 37.23 76.75 37.16C76.51 36.28 77.35 35.88 78.1 35.89C78.85 35.9 79.68 36.24 80.22 36.77C81.48 38.01 80.83 39.74 80.81 41.28C80.84 42.47 79.57 43.05 78.54 42.84C78.51 42.83 78.49 42.85 78.48 42.87C78.48 42.87 78.48 42.88 78.47 42.88C78.47 42.88 78.47 42.88 78.47 42.89V42.9C78.14 45.49 74.01 43.97 72.78 42.96C71.61 42 70.67 40.62 70.33 39.13C70.16 38.4 70.11 37.61 70.33 36.88C70.58 36.08 71.12 35.41 71.7 34.81C71.74 34.77 71.7 34.7 71.64 34.71C71.12 34.83 70.55 34.96 70.08 34.65C69.59 34.33 69.24 33.9 69.3 33.28C69.35 32.82 69.52 32.25 69.94 32C70.4 31.73 70.93 31.63 71.46 31.65C71.64 31.66 71.83 31.67 72.01 31.7C72.02 31.7 72.03 31.7 72.04 31.7C72.04 31.71 72.03 31.71 72.03 31.73C71.92 32 71.76 32.34 71.81 32.65C71.94 33.46 72.66 33.66 73.28 33.19C74.86 32.04 76.89 31.67 78.81 31.91C80.57 32.13 82.39 32.77 83.65 34.06C83.68 34.09 83.73 34.08 83.74 34.05C84.64 32.38 86.33 31.58 88.17 31.5C89.7 31.45 91.6 31.64 92.61 32.93Z" fill="#EDEAE6"/>
<path d="M90.57 60.81C90.25 61.52 90.5 62.12 91.25 62.34C92 63.8 89.42 64.02 88.71 63.12C88.11 62.36 88.03 61.13 89.08 60.74C89.09 60.74 89.09 60.73 89.09 60.73C89.11 60.71 89.12 60.69 89.1 60.66C88.57 59.86 89.33 59 89.94 58.51C90.53 58.04 91.35 57.5 92.14 57.52C92.17 57.52 92.19 57.5 92.2 57.47C92.21 57.45 92.2 57.42 92.17 57.4C90.84 56.66 90.35 53.16 92.32 52.94C92.32 52.94 92.32 52.94 92.33 52.94C92.35 52.94 92.38 52.93 92.38 52.9C92.64 51.19 95.38 50.26 96.65 51.48C97.32 52.13 97.73 53.39 97 54.14C96.6 54.56 95.67 54.91 95.38 54.19C95.73 53.7 95.54 53.24 94.93 53.13C94.25 53.01 93.63 53.47 93.37 54.07C92.82 55.36 93.74 56.7 95.11 56.81C97.1 56.97 98.7 55.23 99.01 53.34C99.12 52.64 98.97 51.85 98.8 51.17C98.65 50.57 98.48 49.74 97.99 49.3C98.48 48.99 98.94 48.63 99.32 48.21C99.43 48.09 99.54 47.97 99.64 47.84C100.69 49.14 101.29 50.75 101.33 52.42C101.35 53.52 101.22 54.72 100.9 55.78C100.74 56.32 100.47 56.89 99.95 57.16C99.55 57.37 98.98 57.52 98.54 57.39C98.51 57.38 98.49 57.39 98.48 57.41C98.48 57.41 98.48 57.41 98.47 57.41C97.89 58.26 96.57 58.36 95.64 58.47C94.72 58.58 93.78 58.64 92.9 58.94C92.63 59.03 92.35 59.15 92.07 59.3C92.05 59.3 92.03 59.31 92.02 59.33C91.4 59.69 90.85 60.17 90.57 60.81Z" fill="#EDEAE6"/>
<path d="M33.39 58.77C35.06 59.24 36.06 60.43 36.14 62.66C36.14 62.79 36.14 62.92 36.14 63.05C36.13 63.33 36.09 63.62 36.02 63.92C35.67 65.44 34.42 66.65 32.95 66.17C32.43 66 31.86 65.56 31.7 64.93C31.49 64.06 31.89 63.3 32.71 63.37C32.86 64.01 33.59 64.19 34.07 63.86C34.59 63.5 34.51 62.53 34.32 61.99C33.81 60.53 31.89 60.18 30.68 60.62C28.64 61.36 28.3 62.99 28.49 64.64C28.68 66.32 30.06 67.59 31.5 67.7C31.39 70.49 34.12 71.09 36.18 71.12C38.26 71.1 41.14 70.55 41.03 67.7C42.48 67.58 43.98 66.36 44.16 64.69C44.34 63.02 43.61 61.4 41.72 60.67C40.43 60.17 38.57 60.51 38.16 62.2C38.01 62.83 38.02 63.59 38.57 63.94C39.03 64.24 39.69 63.91 39.82 63.36C40.7 63.29 41.2 64.3 40.73 65.17C40.46 65.67 40 66.1 39.47 66.18C38.04 66.4 36.82 65.52 36.51 63.9C36.27 62.64 36.3 61.06 37.12 60.1C37.7 59.42 38.49 58.95 39.31 58.74C41.32 58.22 44.67 59.17 45.53 61.44C46.13 63.04 46.32 65.05 45.57 66.64C45.1 67.64 43.46 68.9 42.5 69.3C42.45 69.3 42.51 69.22 42.5 69.3C42.13 72.14 38.45 73.18 36.29 73.23C34.11 73.18 30.39 72.36 30.02 69.46C30.01 69.38 30.01 69.38 30.01 69.38C29.02 68.97 27.55 68.01 26.93 66.34C26.33 64.75 26.23 63.03 26.88 61.47C27.97 58.86 31.35 58.19 33.39 58.77Z" fill="#EDEAE6"/>
<path d="M197.22 31.5H348.22" stroke="#DAD5CE" stroke-width="0.9921" stroke-miterlimit="10" stroke-linecap="round" stroke-linejoin="round"/>
<path d="M348.22 31.5L377.22 3.5" stroke="#DAD5CE" stroke-width="0.9921" stroke-miterlimit="10" stroke-linecap="round" stroke-linejoin="round"/>
<path d="M557.15 31.5H406.15" stroke="#DAD5CE" stroke-width="0.9921" stroke-miterlimit="10" stroke-linecap="round" stroke-linejoin="round"/>
<path d="M406.15 31.5L377.15 3.5" stroke="#DAD5CE" stroke-width="0.9921" stroke-miterlimit="10" stroke-linecap="round" stroke-linejoin="round"/>
<path d="M380.73 17.494L377.619 14.3827L374.508 17.494L377.619 20.6052L380.73 17.494Z" fill="#9F8D79"/>
<path d="M206.22 3.63V17.56" stroke="#DAD5CE" stroke-width="0.9921" stroke-miterlimit="10" stroke-linecap="round" stroke-linejoin="round"/>
<path d="M226.07 3.63V17.56" stroke="#DAD5CE" stroke-width="0.9921" stroke-miterlimit="10" stroke-linecap="round" stroke-linejoin="round"/>
<path d="M246.07 3.63V17.56" stroke="#DAD5CE" stroke-width="0.9921" stroke-miterlimit="10" stroke-linecap="round" stroke-linejoin="round"/>
<path d="M266.07 3.63V17.56" stroke="#DAD5CE" stroke-width="0.9921" stroke-miterlimit="10" stroke-linecap="round" stroke-linejoin="round"/>
<path d="M286.07 3.63V17.56" stroke="#DAD5CE" stroke-width="0.9921" stroke-miterlimit="10" stroke-linecap="round" stroke-linejoin="round"/>
<path d="M306.07 3.63V17.56" stroke="#DAD5CE" stroke-width="0.9921" stroke-miterlimit="10" stroke-linecap="round" stroke-linejoin="round"/>
<path d="M326.07 3.63V17.56" stroke="#DAD5CE" stroke-width="0.9921" stroke-miterlimit="10" stroke-linecap="round" stroke-linejoin="round"/>
<path d="M428.04 3.63V17.56" stroke="#DAD5CE" stroke-width="0.9921" stroke-miterlimit="10" stroke-linecap="round" stroke-linejoin="round"/>
<path d="M447.89 3.63V17.56" stroke="#DAD5CE" stroke-width="0.9921" stroke-miterlimit="10" stroke-linecap="round" stroke-linejoin="round"/>
<path d="M467.89 3.63V17.56" stroke="#DAD5CE" stroke-width="0.9921" stroke-miterlimit="10" stroke-linecap="round" stroke-linejoin="round"/>
<path d="M487.89 3.63V17.56" stroke="#DAD5CE" stroke-width="0.9921" stroke-miterlimit="10" stroke-linecap="round" stroke-linejoin="round"/>
<path d="M507.89 3.63V17.56" stroke="#DAD5CE" stroke-width="0.9921" stroke-miterlimit="10" stroke-linecap="round" stroke-linejoin="round"/>
<path d="M527.89 3.63V17.56" stroke="#DAD5CE" stroke-width="0.9921" stroke-miterlimit="10" stroke-linecap="round" stroke-linejoin="round"/>
<path d="M547.89 3.63V17.56" stroke="#DAD5CE" stroke-width="0.9921" stroke-miterlimit="10" stroke-linecap="round" stroke-linejoin="round"/>
</svg>
