<svg width="19" height="258" viewBox="0 0 19 258" fill="none" xmlns="http://www.w3.org/2000/svg">
<g clip-path="url(#clip0_2_4)">
<path d="M12.0005 -0.22287L7.28781 4.87264" stroke="white" stroke-width="0.7087" stroke-miterlimit="10" stroke-linecap="round" stroke-linejoin="round"/>
<path d="M12.0005 10.0583L7.28781 4.96277" stroke="white" stroke-width="0.7087" stroke-miterlimit="10" stroke-linecap="round" stroke-linejoin="round"/>
<path d="M12.0005 10.132L7.28781 15.2275" stroke="white" stroke-width="0.7087" stroke-miterlimit="10" stroke-linecap="round" stroke-linejoin="round"/>
<path d="M12.0005 20.4213L7.28781 15.3176" stroke="white" stroke-width="0.7087" stroke-miterlimit="10" stroke-linecap="round" stroke-linejoin="round"/>
<path d="M12.0005 20.4705L7.28781 25.566" stroke="white" stroke-width="0.7087" stroke-miterlimit="10" stroke-linecap="round" stroke-linejoin="round"/>
<path d="M12.0005 30.7516L7.28781 25.6561" stroke="white" stroke-width="0.7087" stroke-miterlimit="10" stroke-linecap="round" stroke-linejoin="round"/>
<path d="M12.0005 30.8253L7.28781 35.9209" stroke="white" stroke-width="0.7087" stroke-miterlimit="10" stroke-linecap="round" stroke-linejoin="round"/>
<path d="M12.0005 41.1147L7.28781 36.011" stroke="white" stroke-width="0.7087" stroke-miterlimit="10" stroke-linecap="round" stroke-linejoin="round"/>
<path d="M12.0005 41.1884L7.28781 46.2839" stroke="white" stroke-width="0.7087" stroke-miterlimit="10" stroke-linecap="round" stroke-linejoin="round"/>
<path d="M12.0005 51.4777L7.28781 46.3822" stroke="white" stroke-width="0.7087" stroke-miterlimit="10" stroke-linecap="round" stroke-linejoin="round"/>
<path d="M12.0005 51.5515L7.28781 56.647" stroke="white" stroke-width="0.7087" stroke-miterlimit="10" stroke-linecap="round" stroke-linejoin="round"/>
<path d="M12.0005 61.8326L7.28781 56.7371" stroke="white" stroke-width="0.7087" stroke-miterlimit="10" stroke-linecap="round" stroke-linejoin="round"/>
<path d="M12.0005 61.9227L7.28781 67.0264" stroke="white" stroke-width="0.7087" stroke-miterlimit="10" stroke-linecap="round" stroke-linejoin="round"/>
<path d="M12.0005 72.2121L7.28781 67.1165" stroke="white" stroke-width="0.7087" stroke-miterlimit="10" stroke-linecap="round" stroke-linejoin="round"/>
<path d="M12.0005 72.2858L7.28781 77.3813" stroke="white" stroke-width="0.7087" stroke-miterlimit="10" stroke-linecap="round" stroke-linejoin="round"/>
<path d="M12.0005 82.5669L7.28781 77.4714" stroke="white" stroke-width="0.7087" stroke-miterlimit="10" stroke-linecap="round" stroke-linejoin="round"/>
<path d="M12.0005 82.6161L7.28781 87.7198" stroke="white" stroke-width="0.7087" stroke-miterlimit="10" stroke-linecap="round" stroke-linejoin="round"/>
<path d="M12.0005 92.9054L7.28781 87.8099" stroke="white" stroke-width="0.7087" stroke-miterlimit="10" stroke-linecap="round" stroke-linejoin="round"/>
<path d="M12.0005 92.9791L7.28781 98.0746" stroke="white" stroke-width="0.7087" stroke-miterlimit="10" stroke-linecap="round" stroke-linejoin="round"/>
<path d="M12.0005 103.26L7.28781 98.1648" stroke="white" stroke-width="0.7087" stroke-miterlimit="10" stroke-linecap="round" stroke-linejoin="round"/>
<path d="M12.0005 103.342L7.28781 108.438" stroke="white" stroke-width="0.7087" stroke-miterlimit="10" stroke-linecap="round" stroke-linejoin="round"/>
<path d="M12.0005 113.632L7.28781 108.528" stroke="white" stroke-width="0.7087" stroke-miterlimit="10" stroke-linecap="round" stroke-linejoin="round"/>
<path d="M12.0005 113.697L7.28781 118.801" stroke="white" stroke-width="0.7087" stroke-miterlimit="10" stroke-linecap="round" stroke-linejoin="round"/>
<path d="M12.0005 123.986L7.28781 118.891" stroke="white" stroke-width="0.7087" stroke-miterlimit="10" stroke-linecap="round" stroke-linejoin="round"/>
<path d="M12.0005 124.085L7.28781 129.18" stroke="white" stroke-width="0.7087" stroke-miterlimit="10" stroke-linecap="round" stroke-linejoin="round"/>
<path d="M12.0005 134.366L7.28781 129.27" stroke="white" stroke-width="0.7087" stroke-miterlimit="10" stroke-linecap="round" stroke-linejoin="round"/>
<path d="M12.0005 134.44L7.28781 139.535" stroke="white" stroke-width="0.7087" stroke-miterlimit="10" stroke-linecap="round" stroke-linejoin="round"/>
<path d="M12.0005 144.729L7.28781 139.625" stroke="white" stroke-width="0.7087" stroke-miterlimit="10" stroke-linecap="round" stroke-linejoin="round"/>
<path d="M12.0005 144.778L7.28781 149.874" stroke="white" stroke-width="0.7087" stroke-miterlimit="10" stroke-linecap="round" stroke-linejoin="round"/>
<path d="M12.0005 155.059L7.28781 149.964" stroke="white" stroke-width="0.7087" stroke-miterlimit="10" stroke-linecap="round" stroke-linejoin="round"/>
<path d="M12.0005 155.133L7.28781 160.228" stroke="white" stroke-width="0.7087" stroke-miterlimit="10" stroke-linecap="round" stroke-linejoin="round"/>
<path d="M12.0005 165.422L7.28781 160.319" stroke="white" stroke-width="0.7087" stroke-miterlimit="10" stroke-linecap="round" stroke-linejoin="round"/>
<path d="M12.0005 165.496L7.28781 170.6" stroke="white" stroke-width="0.7087" stroke-miterlimit="10" stroke-linecap="round" stroke-linejoin="round"/>
<path d="M12.0005 175.785L7.28781 170.69" stroke="white" stroke-width="0.7087" stroke-miterlimit="10" stroke-linecap="round" stroke-linejoin="round"/>
<path d="M12.0005 175.859L7.28781 180.955" stroke="white" stroke-width="0.7087" stroke-miterlimit="10" stroke-linecap="round" stroke-linejoin="round"/>
<path d="M12.0005 186.14L7.28781 181.045" stroke="white" stroke-width="0.7087" stroke-miterlimit="10" stroke-linecap="round" stroke-linejoin="round"/>
<path d="M12.0005 186.23L7.28781 191.334" stroke="white" stroke-width="0.7087" stroke-miterlimit="10" stroke-linecap="round" stroke-linejoin="round"/>
<path d="M12.0005 196.52L7.28781 191.424" stroke="white" stroke-width="0.7087" stroke-miterlimit="10" stroke-linecap="round" stroke-linejoin="round"/>
<path d="M12.0005 196.593L7.28781 201.689" stroke="white" stroke-width="0.7087" stroke-miterlimit="10" stroke-linecap="round" stroke-linejoin="round"/>
<path d="M12.0005 206.875L7.28781 201.779" stroke="white" stroke-width="0.7087" stroke-miterlimit="10" stroke-linecap="round" stroke-linejoin="round"/>
<path d="M12.0005 206.924L7.28781 212.027" stroke="white" stroke-width="0.7087" stroke-miterlimit="10" stroke-linecap="round" stroke-linejoin="round"/>
<path d="M12.0005 217.213L7.28781 212.117" stroke="white" stroke-width="0.7087" stroke-miterlimit="10" stroke-linecap="round" stroke-linejoin="round"/>
<path d="M12.0005 217.287L7.28781 222.382" stroke="white" stroke-width="0.7087" stroke-miterlimit="10" stroke-linecap="round" stroke-linejoin="round"/>
<path d="M12.0005 227.568L7.28781 222.472" stroke="white" stroke-width="0.7087" stroke-miterlimit="10" stroke-linecap="round" stroke-linejoin="round"/>
<path d="M12.0005 227.65L7.28781 232.745" stroke="white" stroke-width="0.7087" stroke-miterlimit="10" stroke-linecap="round" stroke-linejoin="round"/>
<path d="M12.0005 237.939L7.28781 232.835" stroke="white" stroke-width="0.7087" stroke-miterlimit="10" stroke-linecap="round" stroke-linejoin="round"/>
<path d="M12.0005 238.013L7.28781 243.108" stroke="white" stroke-width="0.7087" stroke-miterlimit="10" stroke-linecap="round" stroke-linejoin="round"/>
<path d="M12.0005 248.294L7.28781 243.198" stroke="white" stroke-width="0.7087" stroke-miterlimit="10" stroke-linecap="round" stroke-linejoin="round"/>
<path d="M12.0005 248.335L7.28781 253.43" stroke="white" stroke-width="0.7087" stroke-miterlimit="10" stroke-linecap="round" stroke-linejoin="round"/>
<path d="M12.0005 258.624L7.28781 253.529" stroke="white" stroke-width="0.7087" stroke-miterlimit="10" stroke-linecap="round" stroke-linejoin="round"/>
</g>
<defs>
<clipPath id="clip0_2_4">
<rect width="19" height="258" fill="white"/>
</clipPath>
</defs>
</svg>
