<svg width="56" height="50" viewBox="0 0 56 50" fill="none" xmlns="http://www.w3.org/2000/svg">
<g clip-path="url(#clip0_3_25)">
<path d="M42.1548 45.3242C40.1357 44.8905 38.1301 44.5357 36.1716 44.0164C34.5182 43.5793 33.3225 42.4777 32.6158 40.8962C32.1503 39.8531 31.7319 38.7886 31.2788 37.7422C30.8996 36.8636 30.2692 36.5211 29.5222 36.7701C28.829 37.0021 28.4005 37.7839 28.6484 38.6152C28.9725 39.7281 29.373 40.8218 29.7936 41.9032C30.4554 43.6041 30.1952 45.1642 29.0802 46.5531C28.1447 47.719 27.1161 48.806 26.0639 50.0034C25.6882 49.0673 25.318 48.218 25.0051 47.3484C24.6921 46.4788 24.332 45.5878 24.1728 44.6754C23.8721 43.0139 24.3219 41.5214 25.4627 40.2485C26.1357 39.4975 26.7957 38.7308 27.4425 37.9483C28.0034 37.2601 28.3332 36.4738 28.2445 35.558C28.1828 34.934 27.8957 34.4485 27.3169 34.1838C26.7381 33.9191 26.212 34.0892 25.7465 34.4575C25.0241 35.0275 24.6585 35.8284 24.4173 36.6901C24.2457 37.3029 24.1436 37.9371 23.9495 38.542C23.2092 40.8466 21.6153 42.3211 19.3505 43.0094C17.7802 43.4847 16.1593 43.7979 14.5609 44.1752C14.4717 44.1836 14.3819 44.1836 14.2928 44.1752C14.3937 43.8767 14.4767 43.612 14.5698 43.3586C14.9905 42.195 15.4448 41.0426 15.8306 39.8666C16.6966 37.2387 18.4947 35.5862 21.0679 34.7267C22.0954 34.382 23.1475 34.1049 24.147 33.6949C24.8121 33.4223 25.4313 33.0089 26.0213 32.5888C27.0869 31.8307 27.3191 30.7155 27.1857 29.4888C27.1352 29.027 26.7291 28.8479 26.3747 29.1441C26.1654 29.329 25.9985 29.5573 25.8856 29.8132C25.53 30.5905 24.9389 31.0208 24.101 31.0613C23.3988 31.0962 22.6932 31.0692 21.8497 31.0692C22.4106 30.2559 22.8772 29.4663 23.4627 28.7826C23.9652 28.1968 24.6876 28.1067 25.4268 28.3523C25.4627 28.3635 25.4952 28.3838 25.53 28.3962C26.3623 28.7037 26.8346 28.6215 27.069 28.1484C27.419 27.432 27.1329 26.4407 26.4655 26.078C26.3354 26.007 26.1896 25.9147 26.0516 25.9169C24.9198 25.9282 23.7768 25.8741 22.6585 26.0149C21.9293 26.1062 21.4885 26.711 21.3674 27.4793C21.324 27.7002 21.2989 27.9244 21.2922 28.1495C21.309 29.3548 20.7112 30.1196 19.6276 30.5601C19.193 30.7322 18.7677 30.927 18.3533 31.1436C18.1029 31.2731 17.8903 31.4658 17.7365 31.7028C17.5827 31.9398 17.493 32.2129 17.4762 32.4953C17.2653 34.6794 16.092 35.8385 13.88 35.932C12.4218 35.9928 10.9635 35.9433 9.43466 35.9433C9.5244 35.7664 9.576 35.6358 9.65115 35.5186C10.3915 34.3685 11.1251 33.2139 11.8833 32.0751C12.719 30.8214 13.88 30.1388 15.4055 30.1095C16.2457 30.0937 17.0881 30.0532 17.9271 30.0104C18.1694 29.9988 18.4097 29.961 18.6439 29.8977C19.5524 29.6465 20.0471 29.0642 20.0314 28.2926C20.022 27.8819 19.8623 27.4892 19.5827 27.1893C19.3032 26.8895 18.9234 26.7036 18.516 26.6671C16.1436 26.4294 13.7835 26.3292 11.9574 28.3331C11.6034 28.6946 11.222 29.0279 10.8166 29.33C9.46046 30.4136 7.86203 30.5263 6.37914 29.6251C4.27145 28.3399 2.16714 27.0501 0 25.7254C0.124175 25.6346 0.252971 25.5504 0.385867 25.4731C2.41503 24.43 4.43747 23.3757 6.47785 22.3574C7.98093 21.6072 9.43579 21.5779 10.8402 22.6773C11.6489 23.3092 12.5328 23.8465 13.3999 24.3996C14.0959 24.8555 14.9318 25.0454 15.7555 24.9347C16.3275 24.8603 16.8043 24.6148 17.0365 24.0606C17.2687 23.5064 17.2002 22.897 16.7583 22.4948C16.3163 22.0927 15.7936 21.819 15.2675 21.561C14.9411 21.4011 14.5463 21.3797 14.184 21.2907C12.1537 20.7928 10.8738 19.4884 10.4016 17.4822C9.92148 15.4422 9.57376 13.3696 9.15199 11.2283C9.4313 11.3037 9.65788 11.3544 9.87774 11.4265C11.548 11.9706 13.2092 12.5417 14.8862 13.061C17.797 13.9621 18.8682 16.1113 18.6338 18.9894C18.5407 20.1259 18.3118 21.267 18.3612 22.3957C18.4319 23.9727 19.8374 24.8738 21.3674 24.4649C22.4453 24.1788 23.0499 23.1076 22.6439 22.051C22.4267 21.5352 22.1151 21.0648 21.7252 20.6644C20.9075 19.7981 20.6472 18.8238 21.0522 17.7199C21.3505 16.919 21.7487 16.1553 22.157 15.253C22.8222 16.1181 23.4672 16.866 24.009 17.6838C24.6001 18.576 24.5698 19.5334 23.9888 20.4413C23.4549 21.2828 23.4751 22.131 23.8688 23.0141C24.3769 24.1507 25.6377 24.4075 26.5351 23.539C26.7583 23.3231 26.9345 23.0631 27.0526 22.7754C27.1708 22.4877 27.2283 22.1785 27.2215 21.8674C27.2283 20.4785 27.2889 19.084 27.1969 17.6996C27.1253 16.9192 26.9291 16.1555 26.6158 15.4377C26.2793 14.6391 25.6063 14.1547 24.7437 13.9734C23.3977 13.6884 22.037 13.4102 20.6943 13.0914C18.6607 12.6059 17.1643 11.4198 16.2872 9.50144C15.4392 7.64621 14.6203 5.78422 13.7409 3.80959C14.4509 3.94589 15.0499 4.05966 15.6478 4.1768C16.7841 4.40209 17.926 4.59809 19.0555 4.85266C21.1475 5.32576 22.645 6.54231 23.4919 8.5406C23.9529 9.6276 24.3679 10.7349 24.8648 11.8072C25.0508 12.213 25.3359 12.5648 25.6938 12.83C26.4049 13.3279 27.2642 12.874 27.3079 12.001C27.318 11.6274 27.261 11.2549 27.1397 10.9016C26.8032 9.86753 26.4498 8.8391 26.0651 7.82306C25.53 6.4139 25.6467 5.03965 26.5205 3.85802C27.5031 2.54123 28.6439 1.35172 29.8026 0C30.5586 2.21456 31.8699 4.08556 31.8037 6.40601C31.7783 7.33104 31.4666 8.22516 30.912 8.96413C30.0965 10.0906 29.3012 11.217 28.5362 12.3783C28.0617 13.0936 27.751 13.8821 27.9933 14.772C28.2692 15.8061 29.2339 16.1654 30.0124 15.4389C30.4892 14.9694 30.8686 14.4097 31.1285 13.792C31.5053 12.9382 31.7409 12.0224 32.0325 11.1325C32.8278 8.7028 34.5003 7.19564 36.9265 6.54456C38.5104 6.1199 40.1167 5.77972 41.7835 5.38434C41.7672 5.52359 41.742 5.66166 41.7084 5.79774C41.2283 7.21817 40.7998 8.65887 40.2502 10.05C39.4033 12.1778 37.7824 13.5273 35.6837 14.3428C34.0124 14.9905 32.3444 15.6484 30.6966 16.3524C29.401 16.9066 28.8312 17.9587 28.8559 19.3588C28.8705 20.2408 28.8278 21.1262 28.8749 22.0059C28.9445 23.307 29.9551 24.1011 31.1554 23.8522C31.7891 23.7215 32.2288 23.3565 32.286 22.6987C32.3516 21.9523 32.3674 21.2023 32.3332 20.4537C32.276 19.2439 32.6315 18.3045 33.7443 17.6827C34.4554 17.2862 35.0982 16.768 35.7914 16.2916C35.7914 17.6298 35.8407 18.9128 35.7712 20.1901C35.7342 20.8559 35.2485 21.3323 34.6843 21.6838C34.4453 21.8325 34.2008 21.971 33.9731 22.1344C33.2328 22.666 33.3001 23.5863 34.1537 23.8893C35.1453 24.2397 36.1885 24.2521 37.1486 23.7519C37.8822 23.3701 38.1313 22.6627 38.1402 21.8595C38.1526 20.8097 38.1571 19.7587 38.1885 18.7055C38.194 18.043 38.3632 17.3923 38.6809 16.8117C38.9987 16.2312 39.455 15.7389 40.009 15.3792C41.3068 14.4983 42.6719 13.7154 44.0135 12.901C44.6147 12.5338 45.2283 12.188 45.9372 11.7746C45.9372 12.2589 45.9372 12.6431 45.9372 13.0272C45.9114 14.6571 45.991 16.2994 45.825 17.9159C45.6444 19.6664 44.5676 20.8356 42.9198 21.4529C41.9738 21.8051 41.0294 22.1603 40.0864 22.5185C39.2283 22.8463 38.8065 23.3351 38.8974 23.8848C38.9916 24.448 39.5345 24.7567 40.4678 24.7601C41.1038 24.7601 41.7398 24.742 42.3747 24.7601C43.53 24.7995 44.3825 24.2712 45.1789 23.4737C45.7599 22.9001 46.424 22.4181 47.1486 22.0442C47.908 21.6522 48.765 21.73 49.5323 22.1287C51.6411 23.2225 53.7353 24.3422 55.834 25.4528C55.8952 25.4968 55.9533 25.5449 56.0079 25.597C55.6837 25.8223 55.3898 26.0476 55.0802 26.2379C53.5457 27.2044 52.0191 28.1844 50.4667 29.1216C49.0084 30.0014 47.5289 29.8774 46.1784 28.8456C45.3606 28.2216 44.5362 27.6066 43.6983 27.0062C42.9916 26.5015 42.1795 26.292 41.3203 26.2853C40.0864 26.274 38.8525 26.2785 37.6186 26.2853C36.3006 26.292 35.4739 26.9881 35.4313 28.1146C35.3887 29.241 36.2894 30.2357 37.4739 30.3269C38.2591 30.3866 39.0443 30.3742 39.8295 30.3618C41.5065 30.3359 42.7718 31.023 43.6691 32.4558C44.3937 33.6127 45.1756 34.7335 45.926 35.8622C45.8901 35.9129 45.871 35.9635 45.852 35.9635C44.2445 35.9635 42.6327 36.0435 41.0342 35.9331C39.4964 35.8261 38.3421 34.952 37.806 33.5012C37.3416 32.2351 36.6091 31.2956 35.4683 30.604C34.5923 30.0723 34.1279 29.2207 33.9439 28.2103C33.88 27.8623 33.7768 27.5198 33.6781 27.1785C33.6307 27.0561 33.5733 26.9378 33.5065 26.8248C32.8963 25.5553 30.9333 25.6117 29.8138 25.9755C28.903 26.2717 28.4958 27.4398 28.7908 28.5561C29.0152 29.392 29.6231 29.8977 30.5384 29.9709C30.9479 30.0036 31.3606 29.9845 31.7723 29.989C32.3792 29.9957 32.8806 30.2514 33.1946 30.7538C33.6669 31.5108 34.0785 32.3049 34.5956 33.2241C33.5861 33.1734 32.6798 33.1891 31.7914 33.0641C31.0454 32.9582 30.6293 32.359 30.3332 31.7C30.1739 31.3407 30.0886 30.9385 29.8766 30.6164C29.7364 30.4012 29.4134 30.1489 29.2036 30.1771C28.9938 30.2052 28.7359 30.5725 28.7269 30.8C28.6889 31.4925 28.7265 32.1872 28.839 32.8715C29.0735 34.177 29.8643 35.0219 31.1733 35.3023C32.4823 35.5828 33.7746 35.8182 35.0757 36.0739C37.244 36.4997 38.8233 37.6825 39.7375 39.7236C40.534 41.5033 41.3311 43.2823 42.129 45.0606C42.1464 45.1474 42.155 45.2357 42.1548 45.3242Z" fill="#DEC471"/>
</g>
<defs>
<clipPath id="clip0_3_25">
<rect width="56" height="50" fill="white"/>
</clipPath>
</defs>
</svg>
